<svg width="1440" height="1097" viewBox="0 0 1440 1097" fill="none" xmlns="http://www.w3.org/2000/svg">
<path opacity="0.4" fill-rule="evenodd" clip-rule="evenodd" d="M-807.956 -1102.92C-802.951 -1094.12 -746.505 -1059.04 -684.344 -1026.09C-604.949 -983.999 -565.543 -955.314 -502.054 -893.397C-435.305 -828.302 -404.188 -780.118 -371.583 -691.373C-352.348 -639.016 -339.149 -608.566 -325.396 -584.821C-287.678 -519.696 -220.574 -446.52 -157.404 -401.628C-130.199 -382.293 -114.218 -373.6 -34.9114 -334.987C29.5609 -303.598 66.7848 -276.752 117.612 -224.997C185.308 -156.061 216.872 -108.198 249.289 -25.3248C282.986 60.8251 290.394 76.3624 316.264 115.163C352.11 168.923 410.824 231.414 459.827 267.961C490.771 291.04 509.029 301.686 559.34 325.986C647.45 368.543 680.988 389.914 725.109 431.625C741.684 447.295 735.931 445.663 714.806 428.7C670.008 392.733 633.754 372.977 560.703 344.723C514.553 326.874 504.478 322.573 483.184 311.643C395.711 266.74 300.597 177.02 252.246 93.8029C245.774 82.6624 218.182 27.985 218.182 26.298C218.182 24.7278 193.021 -24.8838 186.696 -35.7845C164.276 -74.4229 134.114 -111.956 95.1194 -149.736C28.3427 -214.433 -22.9672 -247.923 -102.255 -278.559C-205.911 -318.611 -238.358 -336.904 -301.325 -390.791C-372.532 -451.728 -420.596 -515.703 -458.221 -599.62C-491.498 -673.838 -525.723 -723.069 -582.736 -778.727C-650.982 -845.35 -697.887 -873.819 -798.632 -909.765C-810.435 -913.975 -823.632 -918.692 -827.956 -920.244C-867.8 -934.543 -908.846 -957.462 -940.886 -983.302C-947.898 -988.956 -954.392 -994.052 -955.317 -994.623C-956.571 -995.398 -957 -943.838 -957 -792.292V-588.92L-947.009 -585.591C-917.113 -575.627 -857.938 -548.598 -824.533 -529.65C-769.628 -498.505 -739.415 -476.261 -704.63 -441.37C-678.695 -415.355 -670.063 -404.665 -634.66 -354.699C-580.526 -278.302 -538.597 -238.703 -461.914 -191.547C-414.915 -162.646 -368.157 -141.824 -322.047 -129.264C-300.162 -123.303 -286.428 -120.44 -236.202 -111.367C-185.631 -102.231 -157.487 -94.1675 -115.576 -76.7981C-53.1311 -50.9224 29.213 5.11792 77.6338 54.6896C101.689 79.3163 111.135 91.043 152.068 147.082C200.452 213.323 242.503 251.61 319.986 299.976C371.838 332.341 435.836 359.326 483.138 368.768C486.789 369.496 494.771 371.109 500.877 372.352C506.982 373.594 518.305 375.731 526.038 377.098C604.641 391.011 643.148 402.811 697.754 429.726C711.983 436.739 721.485 442.958 717.973 442.958C717.093 442.958 695.463 434.349 687.075 430.661C641.779 410.746 600.704 401.33 524.558 393.411C465.037 387.219 421.953 378.917 389.871 367.457C378.612 363.436 357.213 355.089 351.775 352.599C348.324 351.018 345.179 349.725 344.785 349.725C342.43 349.725 295.233 325.826 277.276 315.541C208.277 276.024 174.338 246.799 109.873 171.399C59.42 112.386 30.1381 86.504 -25.2909 51.9296C-88.6412 12.4137 -157.052 -16.188 -216.961 -28.2017C-242.919 -33.4078 -252.025 -34.6702 -298.365 -39.4843C-366.869 -46.601 -402.079 -54.5051 -452.959 -74.1935C-485.885 -86.9338 -538.788 -114.202 -570.7 -134.883C-619.754 -166.673 -651.518 -194.955 -692.853 -243.642C-757.517 -319.804 -787.969 -347.244 -848.041 -383.479C-880.578 -403.106 -947.689 -436.068 -955.15 -436.088C-956.62 -436.091 -956.994 -398.199 -956.975 -251.478L-956.95 -66.8622L-948.464 -63.2734C-902.332 -43.7612 -871.616 -24.1482 -820.928 18.1616C-775.966 55.6899 -756.481 70.1736 -729.468 86.14C-672.408 119.868 -594.418 146.731 -518.422 158.833C-474.438 165.838 -432.031 165.833 -358.308 158.819C-314.79 154.676 -250.106 157.911 -209.561 166.255C-101.86 188.422 -24.9874 223.845 54.2322 287.812C140.405 357.395 180.105 380.036 262.584 406.635C344.773 433.14 408.039 441.087 486.816 434.802C548.279 429.898 561.767 429.31 593.382 430.164C611.291 430.646 629.94 431.672 634.824 432.443C639.708 433.213 649.366 434.648 656.285 435.632C672.738 437.97 692.134 442.164 695.664 444.144C701.442 447.388 693.992 447.442 674.77 444.297C629.262 436.85 566.364 439.033 500.137 450.357C454.984 458.078 413.822 461.434 380.991 460.072C299.558 456.697 204.342 433.128 138.009 399.93C107.698 384.76 96.6854 377.872 36.9406 336.724C-39.1784 284.299 -104.79 258.767 -211.041 240.223C-241.233 234.954 -285.582 232.576 -318.969 234.438C-342.89 235.771 -366.626 238.62 -402.711 244.488C-466.512 254.863 -499.027 256.785 -543.565 252.822C-616.342 246.345 -696.403 225.74 -754.004 198.664C-760.801 195.471 -766.578 192.857 -766.844 192.857C-770.824 192.857 -814.334 165.648 -851.914 139.659C-892.322 111.712 -948.213 78.9064 -955.415 78.9064C-956.552 78.9064 -956.904 126.556 -956.636 244.058L-956.26 409.212L-938.499 416.249C-928.731 420.12 -912.413 427.117 -902.237 431.798C-870.116 446.577 -838.043 460.898 -832.673 462.86C-802.684 473.816 -787.632 478.521 -769.03 482.75C-714.13 495.231 -630.893 500.008 -572.18 494.047C-529.58 489.722 -494.114 481.636 -450.813 466.374C-368.469 437.353 -356.322 433.765 -316.866 426.802C-282.916 420.811 -273.383 420.157 -220.661 420.196C-131.05 420.261 -75.6682 429.908 -5.30975 457.709C2.98901 460.988 24.2711 470.328 48.7131 481.415C114.772 511.385 167.87 524.523 243.343 529.575C333.359 535.601 397.733 527.403 476.456 499.887C539.286 477.926 551.204 473.997 568.081 469.684C609.149 459.19 687.799 449.509 690.923 454.564C692.212 456.65 690.174 457.07 661.465 460.636C604.891 467.666 571.916 477.579 500.137 509.139C486.298 515.225 471.978 521.516 468.315 523.12C462.234 525.784 454.179 528.894 429.093 538.272C424.209 540.099 417.549 542.361 414.292 543.299C379.281 553.404 357.184 557.742 313.647 563.059C291.259 565.794 190.305 565.807 170.819 563.078C144.843 559.441 130.382 556.679 110.212 551.501C81.8284 544.214 82.4233 544.386 70.1742 539.971C64.0688 537.771 55.4104 534.74 50.9332 533.235C46.4559 531.731 34.1343 527.406 23.5518 523.625C-50.6875 497.099 -93.2013 489.606 -169.599 489.586C-271.077 489.558 -331.016 501.966 -418.265 541.065C-472.61 565.418 -505.98 577.97 -532.958 584.208C-538.656 585.525 -545.649 587.203 -548.498 587.936C-616.727 605.478 -743.024 604.858 -813.432 586.632C-831.677 581.91 -843.792 578.161 -866.715 570.145C-910.188 554.942 -947.123 542.537 -952.19 541.438L-957 540.394V693.518V846.641L-940.349 847.652C-913.415 849.286 -885.863 852.583 -858.772 857.415C-815.789 865.079 -801.827 867.101 -776.43 869.339C-755.548 871.177 -694.231 870.191 -678.005 867.755C-653.442 864.068 -646.11 862.849 -632.188 860.138C-541.711 842.511 -484.417 817.711 -399.656 759.482C-331.839 712.894 -299.779 696.198 -242.862 677.827C-208.603 666.769 -152.421 654.027 -121.496 650.3C-114.17 649.418 -102.575 648.022 -95.7293 647.198C-64.0853 643.393 5.8855 647.048 42.7927 654.434C50.3559 655.948 80.7509 660.588 101.996 663.47C201.55 676.979 350.661 645.814 442.602 592.282C460.691 581.75 472.437 574.059 511.496 547.169C554.314 517.695 586.268 499.824 623.285 484.646C641.56 477.153 674.098 466.195 675.098 467.195C676.877 468.974 672.792 471.194 652.999 479.201C602.278 499.721 567.278 521.36 510.497 567.302C457.342 610.312 435.548 625.106 396.517 644.677C365.308 660.326 318.777 678.337 289.226 686.209C284.748 687.402 274.758 690.082 267.025 692.164C199.13 710.448 155.236 713.502 66.474 706.119C5.05225 701.011 -51.8124 702.246 -88.1942 709.48C-178.993 727.532 -256.312 757.023 -313.906 795.569C-335.299 809.887 -341.869 814.833 -375.329 841.798C-409.942 869.691 -422.045 878.746 -442.876 892.336C-513.216 938.223 -621.943 974.084 -714.076 981.784C-727.507 982.908 -744.693 983.19 -760.699 982.551C-785.323 981.567 -796.674 980.808 -841.554 977.136C-867.199 975.038 -935.912 976.077 -948.49 978.754L-957 980.563V1160.99C-957 1304.96 -956.626 1341.19 -955.15 1340.27C-908.585 1311.2 -852.893 1284.32 -820.833 1275.44C-817.17 1274.42 -809.177 1272.21 -803.072 1270.53C-796.967 1268.84 -782.98 1265.8 -771.99 1263.78C-751.801 1260.06 -744.524 1259.19 -688.366 1253.81C-609.365 1246.25 -565.522 1234.58 -501.136 1203.96C-436.363 1173.17 -384.633 1137.68 -341.178 1094.22C-322.649 1075.69 -311.88 1063.63 -282.135 1028.12C-229.653 965.475 -170.67 920.838 -85.977 879.681C-21.1807 848.193 26.0768 835.39 110.876 826.355C151.7 822.006 168.704 819.724 185.62 816.325C195.796 814.28 205.786 812.28 207.821 811.88C225.6 808.391 270.585 792.815 296.434 781.198C393.05 737.777 456.722 689.919 522.974 610.924C562.698 563.561 587.001 539.483 620.978 513.831C648.567 493 674.046 476.593 674.046 479.659C674.046 481.438 669.003 485.708 657.025 494.07C614.581 523.698 578.297 561.8 532.016 625.334C476.67 701.316 442.849 734.336 374.33 779.286C299.921 828.101 237.712 853.782 161.939 866.965C44.6221 887.375 -7.78302 907.144 -94.1145 963.551C-159.342 1006.17 -197.886 1043.87 -249.523 1115.58C-316.134 1208.08 -376.78 1260.23 -476.715 1310.94C-533.505 1339.75 -564.643 1349.39 -649.144 1364.31C-656.063 1365.53 -668.052 1367.91 -675.785 1369.59C-683.519 1371.27 -692.51 1373.17 -695.766 1373.8C-769.107 1388.16 -874.643 1444.81 -942.097 1506.03C-948.96 1512.26 -955.122 1517.35 -955.788 1517.35C-956.455 1517.35 -957 1652.54 -957 1817.77C-957 1983 -956.824 2118.18 -956.609 2118.18C-955.012 2118.18 -939.77 2111.98 -937.154 2110.27C-931.8 2106.76 -902.93 2074.31 -883.643 2050.11C-852.64 2011.22 -830.792 1976.44 -798.567 1914.7C-758.471 1837.88 -723.194 1789.88 -660.984 1727.52C-594.542 1660.92 -550.103 1632.96 -457.474 1599.5C-399.036 1578.39 -365.5 1562.24 -328.707 1537.48C-269.616 1497.71 -203.325 1432.02 -167.692 1377.92C-149.921 1350.93 -148.382 1348 -103.343 1255.41C-72.1324 1191.25 -24.0684 1131.76 41.6175 1075.98C95.8608 1029.91 136.08 1006.11 204.861 979.377C258.44 958.549 263.542 956.469 281.073 948.318C308.188 935.711 341.253 915.844 364.548 898.159C368.937 894.828 374.265 890.807 376.389 889.225C395.775 874.783 436.587 837.219 457.589 814.488C499.483 769.147 524.323 731.848 552.718 671.645C592.399 587.514 610.187 559.315 657.477 505.57C665.152 496.846 669.606 493.367 669.606 496.097C669.606 496.784 665.078 502.924 659.546 509.739C624.336 553.113 601.428 593.525 577.863 653.841C571.187 670.934 562.703 692.577 559.013 701.937C531.475 771.795 492.147 829.271 428.389 892.842C373.411 947.657 339.38 970.792 253.01 1012.07C172.27 1050.65 139.365 1073.45 83.4949 1129.51C16.6323 1196.61 -18.8702 1249.54 -49.5967 1327.93C-81.4805 1409.27 -91.5215 1430.88 -113.142 1464.66C-137.265 1502.36 -162.589 1532.95 -202.729 1572.87C-260.554 1630.37 -286.158 1647.31 -392.35 1698.29C-462.414 1731.92 -507.774 1765.59 -562.318 1824.43C-621.782 1888.58 -651.801 1939.77 -681.624 2027.91C-695.173 2067.95 -712.028 2105.94 -726.946 2130.05C-731.343 2137.16 -735.355 2144.06 -735.863 2145.38C-736.711 2147.59 -721.099 2147.78 -541.256 2147.78C-379.728 2147.78 -345.728 2147.44 -345.728 2145.82C-345.728 2140.42 -316.992 2080.84 -300.281 2051.59C-251.55 1966.29 -217.1 1928.54 -134.817 1870.3C-48.7116 1809.35 -9.7486 1768.1 39.6757 1685.55C77.0817 1623.07 97.9626 1566.94 110.783 1494.41C126.718 1404.28 135.839 1374.02 164.1 1317.57C201.416 1243.02 253.002 1174.75 305.801 1130.02C317.255 1120.32 327.057 1112.89 382.833 1071.61C436.075 1032.2 472.362 993.398 511.951 933.539C562.854 856.571 586.806 798.448 602.206 714.516C611.792 662.266 613.993 651.273 618.049 635.342C630.113 587.952 663.346 508.719 668.849 514.223C669.139 514.513 665.539 523.735 660.847 534.719C652.745 553.684 643.9 577.578 641.401 587.246C640.771 589.688 638.924 596.347 637.297 602.045C629.447 629.534 625.168 657.156 618.385 724.135C610.234 804.613 590.629 865.39 547.496 943.898C540.342 956.921 533.594 968.908 532.502 970.536C531.409 972.164 524.333 982.819 516.777 994.214C488.418 1036.99 457.212 1070.54 404.672 1114.74C329.559 1177.94 290.547 1226.58 249.406 1308.34C210.009 1386.63 198.466 1427.58 187.778 1526.97C177.891 1618.93 165.892 1661.93 130.131 1733.58C85.0963 1823.82 50.5942 1866.74 -35.6514 1939.82C-95.0277 1990.13 -129.901 2031.57 -165.262 2093.83C-175.685 2112.18 -191.8 2143.96 -191.8 2146.16C-191.8 2147.33 -140.062 2147.78 -6.0498 2147.78C143.924 2147.78 179.7 2147.42 179.7 2145.89C179.7 2143.91 198.741 2111.3 203.655 2104.87C205.209 2102.83 212.198 2093.51 219.187 2084.15C226.176 2074.79 240.007 2057.47 249.921 2045.67C311.28 1972.63 333.789 1932.93 361.753 1848.41C389.683 1763.98 395.803 1703 386.806 1598.75C378.122 1498.14 389.747 1421.31 429.01 1319.79C447.983 1270.73 475.269 1225.12 515.772 1174.76C566.254 1111.99 578.92 1093.59 598.449 1054.62C614.058 1023.48 633.889 971.43 642.325 939.458C663.808 858.043 667.88 810.894 660.483 729.18C656.273 682.677 655.959 619.876 659.8 592.426C663.558 565.573 669.41 534.855 671.463 531.208L673.241 528.051L673.757 531.459C674.04 533.334 673.244 541.658 671.987 549.958C667.079 582.358 666.265 595.868 667.072 631.557C667.874 667.005 669.218 680.489 676.302 724.135C685.485 780.72 686.627 792.666 686.627 832.167C686.627 910.374 668.337 997.584 636.347 1071.91C621.124 1107.28 609.383 1126.84 561.288 1196.96C512.528 1268.05 485.394 1337.66 468.42 1435.22C462.894 1466.99 461.853 1480.62 461.755 1522.53C461.649 1568.12 461.898 1571.03 470.643 1626.12C485.875 1722.08 485.506 1766.22 468.789 1848.85C460.234 1891.13 444.353 1943.99 432.11 1970.94C431 1973.38 427.979 1980.04 425.396 1985.74C413.572 2011.82 400.736 2032.58 352.625 2103.39C338.444 2124.26 326.228 2144.36 326.228 2146.81C326.228 2147.35 399.747 2147.78 489.603 2147.78H652.98L653.738 2144.45C654.154 2142.62 659.96 2129.47 666.638 2115.23C710.669 2021.32 723.223 1965.13 723.171 1862.17C723.13 1781.54 715.635 1742.77 682.109 1649.8C647.934 1555.03 638.4 1468.13 651.1 1367.14C658.431 1308.86 671.413 1262.91 695.406 1210.34C703.218 1193.22 705.253 1188.6 713.693 1168.84C725.746 1140.61 738.865 1102.95 742.045 1087.45C742.713 1084.19 744.304 1076.53 745.58 1070.43C761.705 993.302 762.613 898.051 747.901 826.987C742.852 802.605 738.136 786.279 726.398 752.527C701.149 679.937 700.551 678.096 695.349 656.801C694.156 651.917 692.584 645.59 691.857 642.742C689.297 632.715 684.188 598.911 682.912 583.546C682.201 575 681.156 562.566 680.591 555.916C678.664 533.309 682.864 533.515 685.755 556.169C689.908 588.72 690.593 593.584 692.001 600.565C701.06 645.482 713.582 681.01 743.701 747.263C775.039 816.192 787.759 871.184 792.664 958.937C797.144 1039.08 787.888 1100.7 759.136 1182.16C744.982 1222.26 737.602 1243.98 735.379 1252.08C734.208 1256.36 732.276 1263.45 731.087 1267.84C709.72 1346.79 711.374 1474.71 734.859 1559.53C742.969 1588.82 748.466 1603.76 765.075 1641.66C798.405 1717.73 802.398 1728.46 812.673 1769.67C829.468 1837.03 832.611 1947.43 819.701 2016.49C815.354 2039.74 804.553 2078.2 796.212 2100.12C789.751 2117.1 780.612 2143.75 780.612 2145.62C780.612 2147.5 799.719 2147.78 928.619 2147.78H1076.63V2142.12C1076.63 2134.51 1079.19 2117.55 1088.41 2064.17C1103.73 1975.48 1100.55 1909.02 1076.66 1818.51C1057.64 1746.44 1036.96 1703.43 984.886 1627.63C931.13 1549.37 911.755 1507.55 891.65 1426.34C869.317 1336.14 867.272 1280.33 882.623 1179.98C885.802 1159.2 889.285 1136.21 890.361 1128.88C893.423 1108.05 892.961 1033.19 889.627 1009.75C880.869 948.219 863.249 880.119 846.549 843.266C845.442 840.824 842.744 834.497 840.552 829.207C829.417 802.329 817.176 781.79 777.484 723.395C748.402 680.606 739.732 666.445 727.262 641.354C711.522 609.682 691.681 556.442 694.55 553.574C696.018 552.106 697.166 554.444 707.4 579.758C728.248 631.335 746.472 660.315 799.119 725.615C838.4 774.339 850.846 792.744 871.17 832.167C879.022 847.398 881.042 851.882 890.838 875.823C900.557 899.577 914.763 943.973 921.142 970.536C922.9 977.861 924.986 986.518 925.775 989.774C937.179 1036.87 939.932 1104.77 933.003 1168.15C922.545 1263.83 935.699 1352.97 974.816 1451.5C998.305 1510.66 1017.35 1541.92 1069.72 1607.3C1110.52 1658.23 1124.07 1678 1141.96 1712.7C1161.59 1750.75 1183.97 1811.71 1193.56 1853.29C1208.76 1919.12 1212.51 1964.57 1207.66 2024.21C1202.88 2082.9 1202.6 2087.92 1202.52 2117.81L1202.43 2147.78H1372.64C1466.44 2147.78 1542.85 2147.21 1542.85 2146.51C1542.85 2145.81 1537.91 2135.33 1531.87 2123.2C1500.49 2060.21 1489.7 2019.57 1482.15 1936.02C1477.68 1886.52 1477.07 1881.66 1471.62 1851.44C1457.96 1775.67 1409.48 1675.8 1351.82 1604.67C1337.55 1587.06 1300.97 1551.14 1275.7 1529.92C1201.62 1467.7 1171.52 1433.1 1132.27 1365.07C1116.69 1338.06 1110.01 1324.63 1090.5 1280.97C1080.02 1257.54 1067.63 1215.94 1061.96 1185.12C1058.3 1165.25 1056.96 1154.94 1052.21 1110.38C1050.18 1091.26 1047.16 1067.62 1045.5 1057.85C1043.85 1048.08 1042.1 1037.76 1041.62 1034.91C1032.08 978.724 988.731 882.937 943.493 818.108C919.89 784.284 887.433 749.265 850.545 717.827C842.201 710.716 828.548 699.071 820.207 691.948C782.132 659.442 753.874 628.572 726.401 589.466C713.582 571.219 706.211 558.837 706.914 556.729C707.589 554.705 708.746 556.097 728.6 582.806C761.437 626.984 781.297 644.964 873.116 713.655C925.779 753.051 953.998 781.749 991.045 833.584C1027.12 884.057 1061.36 948.885 1075.1 992.734C1079.08 1005.42 1086.37 1031.35 1087.37 1036.39C1087.78 1038.43 1089.83 1048.41 1091.92 1058.59C1094.02 1068.76 1097.06 1084.75 1098.67 1094.11C1103.41 1121.64 1106.28 1134.75 1115.15 1169.58C1123.15 1201.01 1147.06 1253.69 1172.54 1296.03C1207.74 1354.53 1245.46 1400.92 1287.03 1436.85C1300.35 1448.36 1309.2 1455.13 1365.53 1496.86C1403.73 1525.16 1430.48 1550.4 1459.41 1585.43C1473.42 1602.39 1502.22 1643.35 1511.43 1659.42C1513.07 1662.27 1517.89 1670.59 1522.15 1677.92C1555.09 1734.57 1575.3 1790.44 1587.19 1857.73C1603.04 1947.46 1612.96 1980.6 1640.07 2034.57C1656.72 2067.71 1674.53 2097.07 1697.3 2128.91L1710.8 2147.78H1984.26H2257.73V2124.14V2100.5L2249.96 2094.35C2230.36 2078.86 2191.12 2055.03 2148.94 2033C2077.2 1995.53 2039.86 1970.31 1989.06 1925.04C1903.45 1848.76 1860.62 1786.44 1825.86 1687.54C1793.52 1595.52 1760.23 1541.99 1691.62 1471.67C1636.49 1415.16 1598.76 1389.23 1511.03 1347.53C1433.47 1310.66 1394.87 1284.04 1342.28 1231.15C1279.35 1167.86 1240.15 1110.89 1213.88 1044.53C1210.98 1037.2 1202.19 1014.99 1194.35 995.167C1162.03 913.429 1132.79 867.529 1072.2 803.407C1015.58 743.477 971.94 711.877 896.536 676.194C813.551 636.923 791.539 623.201 738.742 577.83C716.748 558.927 714.622 552.118 736.254 569.858C779.413 605.249 817.728 627.145 878.195 650.977C895.753 657.899 917.778 666.594 927.139 670.305C999.75 699.073 1052.6 735.297 1118.87 801.7C1173.09 856.036 1193.27 884.572 1229.36 957.957C1267.5 1035.51 1268.95 1038.19 1288.02 1066.49C1329.63 1128.23 1405.53 1199.96 1471.81 1240.18C1496.44 1255.13 1525.82 1268.83 1568.01 1285.05C1627.75 1308.01 1649.35 1317.88 1679.71 1336.07C1718.89 1359.53 1751.84 1385.77 1793.44 1426.6C1851.82 1483.92 1877.82 1522.44 1921.62 1616.5C1933.16 1641.29 1948.7 1669.68 1960.91 1688.28C2007.73 1759.6 2087.94 1833.97 2160.17 1873.03C2184.72 1886.3 2247.73 1911.59 2254.02 1910.69C2258.39 1910.06 2259.5 1521.88 2255.15 1518.03C2253.72 1516.77 2244.05 1510.16 2233.66 1503.34C2177.25 1466.32 2147.25 1435.81 2094.56 1361.86C2034.91 1278.13 1997.36 1242.49 1917.31 1193.67C1849.29 1152.17 1796.41 1132.65 1711.58 1117.71C1635.61 1104.33 1599.78 1093.47 1549.53 1068.55C1471.39 1029.81 1405.56 980.778 1358.3 926.139C1349.84 916.356 1338.88 901.918 1301 850.68C1252.65 785.272 1201.94 740.811 1122.51 694.185C1058.68 656.719 1015.32 641.547 922.699 624.273C845.95 609.958 814.088 600.1 762.241 574.63C728.917 558.261 728.217 554.375 761.152 568.582C820.29 594.092 853.485 601.579 952.301 611.698C1020.83 618.716 1072.64 633.7 1136.57 664.986C1224.24 707.891 1276.2 747.779 1334.13 816.628C1398.62 893.262 1432.4 922.817 1499.93 961.679C1583.67 1009.87 1650.4 1031.94 1738.96 1040.74C1783.14 1045.13 1796.67 1046.88 1820.37 1051.25C1869.19 1060.26 1911.51 1075.31 1966.34 1103.16C2046 1143.63 2098.3 1184.68 2151.9 1248.81C2197.51 1303.38 2248.56 1353.74 2255.56 1351.05C2257.45 1350.33 2257.73 1325.61 2257.73 1159.56V968.896L2252.92 964.325C2243.66 955.519 2209.06 930.483 2191.66 919.99C2118.51 875.878 2021.94 846.016 1931.37 839.508C1905.98 837.682 1891.33 838.141 1834.43 842.542C1730.81 850.556 1678.17 844.978 1590.65 816.715C1508.81 790.285 1466.24 766.672 1391.88 706.449C1338.24 663 1311.84 645.509 1270.39 625.944C1210.24 597.555 1136.73 576.331 1071.45 568.508C1046.66 565.538 988.133 566.226 944.179 570.007C878.689 575.639 823.041 573.255 773.951 562.714C750.85 557.754 755.157 554.554 779.962 558.252C835.378 566.511 877.006 565.439 949.341 553.888C959.516 552.262 971.838 550.31 976.722 549.549C981.606 548.788 988.018 547.787 990.971 547.325C1029.09 541.354 1093.05 541.3 1127.69 547.212C1130.13 547.628 1138.79 549.028 1146.93 550.323C1196.95 558.275 1259.08 575.866 1298.75 593.305C1326.82 605.643 1355.44 621.973 1387.44 643.914C1453.15 688.957 1469.68 699.205 1498.45 712.733C1571.37 747.025 1668.84 768.781 1750.06 768.894C1788.05 768.948 1805.37 767.221 1865.51 757.382C1939.87 745.215 1999.29 745.822 2066.8 759.433C2121.05 770.374 2164.96 783.655 2204.44 801.07C2220.07 807.965 2220.36 808.114 2239.57 818.907C2247.24 823.214 2254.22 826.206 2255.48 825.722C2258.55 824.545 2258.94 531.62 2255.88 529.127C2250.32 524.595 2202.42 514.383 2166.7 510.112C2138.42 506.729 2046.82 506.211 2022.4 509.295C1970.85 515.805 1956.78 519.613 1858.85 553.56C1795.54 575.506 1747.34 583.567 1679.76 583.512C1603.25 583.45 1539.68 573.674 1484.39 553.466C1459.69 544.441 1443.13 537.528 1415.57 524.742C1371.43 504.269 1324.23 488.755 1284.58 481.682C1262.31 477.71 1256.45 476.909 1233.52 474.707C1200.02 471.491 1126.08 471.479 1098.83 474.688C1055.61 479.774 1020.89 488.443 967.842 507.395C957.259 511.174 942.939 516.28 936.02 518.739C914.514 526.384 890.247 533.279 864.236 539.137C840.001 544.594 772.539 551.147 763.625 548.91C757.724 547.428 760.702 545.071 768.488 545.059C772.307 545.053 785.089 543.749 796.892 542.16C858.846 533.824 894.307 522.519 978.392 484.302C1056.3 448.889 1128.66 435.495 1231.3 437.482C1298.76 438.789 1339.89 446.113 1400.02 467.531C1514.76 508.396 1555.02 515.945 1644.98 513.458C1734.02 510.997 1786.9 499.812 1860.97 467.772C1931.64 437.208 1954.9 427.9 1971.33 423.604C1993.69 417.763 2000.85 416.006 2009.82 414.161C2077.3 400.279 2165.25 397.954 2230.35 408.331C2239.3 409.759 2248.96 410.974 2251.81 411.034L2256.99 411.14L2257.37 274.809C2257.67 166.829 2257.36 138.18 2255.89 137.05C2250.28 132.743 2176.83 130.409 2149.55 133.669C2103.35 139.191 2075.6 144.524 2036.46 155.406C1973.09 173.023 1928.33 194.148 1871.43 233.3C1774.02 300.323 1739.02 317.057 1650.9 338.726C1596.55 352.091 1564.18 356.202 1512.51 356.302C1467.69 356.387 1464 356.085 1413.34 348.146C1350.67 338.321 1331.87 336.43 1297.16 336.45C1241.2 336.484 1170.54 348.889 1106.39 369.937C1093.05 374.316 1080.07 378.833 1077.53 379.977C1075 381.121 1067.93 384.193 1061.83 386.803C1026.02 402.114 1009.02 412.332 932.596 464.466C889.436 493.909 846.969 515.214 802.073 529.953C770.762 540.23 771.892 536.332 803.926 523.568C856.395 502.662 891.939 480.317 956.982 427.348C993.852 397.324 1015.38 382.389 1046.29 365.403C1089.71 341.532 1158.76 316.524 1212.05 305.368C1216.94 304.346 1222.93 302.941 1225.38 302.249C1252.35 294.595 1329.88 291.166 1377.82 295.505C1482.54 304.981 1535.28 300.501 1621.3 274.825C1706.35 249.435 1757.49 221.943 1831.47 161.834C1884.48 118.76 1908.92 102.284 1947.83 83.3993C1993.48 61.241 2050.12 42.1431 2103.06 31.0573C2145.47 22.178 2160.99 20.6788 2211.85 20.559L2256.99 20.4509L2257.37 -121.826C2257.68 -239.563 2257.4 -264.236 2255.76 -264.865C2254.67 -265.282 2247.6 -264.357 2240.04 -262.807C2232.49 -261.258 2219.56 -259.053 2211.31 -257.908C2196.57 -255.862 2186.67 -254.829 2137.84 -250.242C2115.68 -248.16 2105.48 -246.777 2079.8 -242.372C2056.16 -238.315 2024.6 -228.896 1989.84 -215.521C1957.53 -203.091 1891.27 -166.553 1858.85 -143.288C1825.55 -119.394 1787.41 -83.1053 1756.74 -46.1438C1689.12 35.3578 1644.55 71.5055 1556.91 115.918C1486.39 151.657 1433.31 167.612 1360.06 175.085C1252.66 186.044 1210.43 196.862 1138.8 231.757C1049.04 275.488 997.393 316.16 931.683 394.861C890.651 444.007 861.177 471.915 818.67 501.866C800.519 514.656 787.346 522.871 784.987 522.871C781.67 522.871 784.267 520.166 794.933 512.512C846.179 475.737 876.385 444.275 926.355 375.623C971.515 313.579 999.721 283.984 1049.46 246.457C1086.7 218.353 1156.43 178.004 1186.89 166.922C1190.96 165.441 1194.96 163.772 1195.77 163.211C1198.67 161.217 1233.05 150.149 1249.8 145.821C1271.3 140.264 1284.49 137.575 1331.94 129.077C1414.59 114.28 1474.63 89.5171 1552.47 38.134C1616.8 -4.32971 1656.03 -42.7919 1707.1 -113.478C1751.24 -174.565 1774.77 -200.197 1818.89 -235.246C1854.01 -263.152 1903.99 -294.483 1942.47 -312.718C1950.21 -316.384 1958.53 -320.393 1960.97 -321.628C1968.69 -325.532 1998.8 -336.509 2016.48 -341.861C2034.63 -347.359 2063.16 -353.663 2101.58 -360.665C2145.78 -368.721 2172.52 -375.135 2198.53 -383.924C2215.41 -389.629 2248.45 -403.444 2254.17 -407.191L2257.73 -409.523V-659.712C2257.73 -859.2 2257.36 -909.78 2255.88 -909.297C2254.86 -908.966 2250.46 -902.084 2246.1 -894.006C2228.84 -862.003 2204.12 -823.341 2187.98 -803.104C2165.46 -774.85 2148.34 -755.799 2119.38 -726.755C2049.94 -657.127 2011.03 -632.172 1919.53 -598.593C1817.26 -561.062 1770.24 -532.139 1699.91 -463.494C1647.34 -412.181 1620.4 -375.138 1588.5 -310.303C1543.71 -219.246 1533.57 -201.457 1507.1 -167.494C1463.15 -111.103 1394.05 -49.6968 1336.6 -15.9733C1309.26 0.0775146 1287.7 9.88757 1237.22 29.2548C1140.17 66.4856 1092.39 96.8411 1020.83 166.723C968.679 217.648 939.523 258.249 907.477 324.567C899.415 341.253 888.24 364.349 882.644 375.892C860.924 420.703 829.582 465.647 794.209 502.705C781.423 516.101 783.345 509.868 797.231 492.908C834.609 447.258 859.26 403.18 882.69 340.106C921.592 235.376 957.98 178.838 1034.64 104.014C1089.36 50.6139 1124.46 27.7837 1221.67 -17.6265C1292.86 -50.8794 1351.89 -97.3862 1411.88 -167.494C1459.37 -222.988 1484.73 -266.91 1514.03 -344.34C1543.43 -422.053 1565.21 -461.46 1607.34 -513.221C1620.83 -529.789 1655.18 -567.385 1665.22 -576.557C1709.26 -616.821 1730.41 -632.98 1765.6 -653.278C1781.89 -662.672 1789.48 -666.493 1849.54 -695.539C1912.9 -726.185 1946.87 -750.087 1997.04 -799.349C2070.15 -871.127 2106.69 -929.65 2139.81 -1028.05C2146.78 -1048.76 2152.76 -1064.24 2160.95 -1082.79C2165.43 -1092.97 2169.47 -1102.13 2169.92 -1103.15C2170.56 -1104.63 2131.75 -1104.99 1978.52 -1104.92L1786.32 -1104.85L1778.92 -1089.91C1772.16 -1076.26 1759.98 -1053.47 1749.42 -1034.71C1740.97 -1019.69 1714.39 -980.949 1701.71 -965.167C1673.35 -929.875 1649.14 -908.449 1590.15 -866.425C1544.6 -833.979 1526.96 -819.714 1503.59 -796.444C1441.82 -734.918 1381.13 -632.513 1360.22 -554.484C1359.02 -550.007 1357.06 -542.681 1355.86 -538.205C1354.67 -533.728 1351.28 -517.412 1348.33 -501.948C1331.76 -415.117 1328.71 -402.221 1317.04 -370.034C1288.56 -291.495 1228.24 -198.897 1169.79 -143.994C1152.96 -128.183 1134.58 -113.467 1100.31 -88.3501C1064.15 -61.8513 1056 -55.4877 1036.67 -38.62C961.67 26.7878 889.289 144.372 865.026 240.214C860.184 259.346 859.518 262.487 853.905 292.749C842.442 354.56 839.651 367.136 831.409 394.121C822.57 423.063 797.572 480.107 789.202 490.432L786.298 494.014L787.225 489.574C787.735 487.132 790.722 479.474 793.863 472.555C816.884 421.847 829.185 373.194 835.395 308.288C837.716 284.028 842.612 243.607 844.179 235.774C844.912 232.111 846.311 224.786 847.286 219.495C859.806 151.665 904.675 55.015 955.12 -12.7843C979.21 -45.1626 1004.29 -70.7186 1052.21 -111.729C1130.11 -178.401 1166.05 -223.281 1207.67 -305.863C1246.58 -383.076 1259.24 -427.954 1269.02 -523.406C1278 -611.076 1291.5 -659.363 1327.13 -731.224C1369.97 -817.624 1407.42 -864.697 1487.35 -932.61C1537.9 -975.555 1566.99 -1006.48 1594.22 -1046.2C1609.77 -1068.89 1628.7 -1100.73 1628.7 -1104.21C1628.7 -1104.64 1544.46 -1105 1441.5 -1105H1254.31L1252.21 -1100.93C1249 -1094.74 1231.42 -1072.16 1207.21 -1043.14C1152.09 -977.091 1130.18 -941.43 1107 -880.058C1087.07 -827.312 1074.61 -777.431 1067.61 -722.45C1065.44 -705.315 1065.45 -642.794 1067.64 -622.184C1079.14 -513.87 1073.24 -453.387 1041.63 -355.439C1017.11 -279.478 993.034 -236.622 932.281 -160.835C889.448 -107.401 877.094 -88.9908 856.807 -48.3636C831.494 2.32971 807.515 77.9149 798.59 135.142C794.071 164.125 793.385 173.937 793.416 209.136C793.447 243.543 794.086 255.104 798.442 299.837C801.849 334.836 799.838 394.4 794.033 430.379C785.324 484.35 780.156 487.074 787.015 434.078C793.679 382.592 792.023 354.422 776.315 252.053C765.342 180.533 767.955 118.06 785.078 42.6493C805.154 -45.7633 828.507 -97.7014 883.634 -176.544C930.896 -244.139 949.866 -282.774 971.469 -355.439C991.197 -421.793 1001.1 -516.433 993.997 -570.762C991.008 -593.634 987.586 -616.329 981.839 -651.416C968.419 -733.348 978.112 -832.391 1008.58 -924.667C1026.57 -979.137 1046.54 -1017.16 1089.64 -1078.98C1098.11 -1091.12 1105.37 -1101.95 1105.79 -1103.04C1106.42 -1104.68 1079.51 -1104.95 946.361 -1104.64L786.174 -1104.26L779.552 -1089.46C772.508 -1073.72 760.878 -1044.53 757.735 -1034.71C752.058 -1016.96 748.475 -1003.51 744.132 -983.65C733.078 -933.097 729.925 -834.004 737.706 -781.646C744.464 -736.157 750.106 -716.011 779.149 -633.657C802.373 -567.8 810.161 -521.646 810.195 -449.644C810.244 -347.964 795.165 -278.656 753.85 -190.657C750.661 -183.862 748.05 -178.055 748.05 -177.753C748.05 -177.449 746.45 -173.685 744.495 -169.388C721.759 -119.432 708.881 -70.5189 701.916 -7.66687C699.201 16.8237 699.222 114.236 701.947 134.402C707.86 178.187 715.266 208.217 731.142 252.793C754.574 318.584 760.589 338.373 766.45 368.963C773.62 406.39 778.454 457.651 775.013 459.778C772.901 461.083 772.199 458.271 770.265 440.738C763.677 381.02 749.934 335.666 716.683 263.892C711.535 252.778 701.609 228.765 694.051 209.136C662.466 127.105 654.043 -9.93835 674.854 -103.186C681.005 -130.744 687.069 -150.276 704.465 -198.572C733.486 -279.145 739.812 -314.778 739.803 -397.616C739.795 -466.324 735.443 -505.4 722.248 -555.224C713.919 -586.668 707.807 -602.646 680.366 -664.692C645.344 -743.885 634.198 -791.289 629.487 -881.085C627.028 -927.939 630.47 -982.381 638.076 -1016.95C639.329 -1022.64 640.87 -1029.97 641.499 -1033.23C643.515 -1043.65 648.864 -1062.28 655.626 -1082.43C659.245 -1093.21 662.205 -1102.7 662.205 -1103.52C662.205 -1104.5 613.68 -1105 518.638 -1105C377.733 -1105 375.07 -1104.95 375.07 -1102.14C375.07 -1100.57 372.829 -1086.42 370.09 -1070.69C360.989 -1018.46 358.79 -998.078 358.792 -966.026C358.797 -925.813 362.867 -892.697 374.634 -837.141C390.416 -762.628 417.643 -703.005 470.6 -626.998C517.89 -559.123 537.716 -519.652 556.242 -456.492C577.711 -383.301 586.874 -316.934 583.702 -257.609C582.198 -229.488 580.462 -214.844 574.247 -177.853C557.139 -76.024 560.429 -8.27063 587.33 91.4854C606.279 161.753 626.453 202.966 679.334 279.431C719.109 336.943 739.403 375.86 757.046 428.444C767.785 460.46 763.608 457.625 749.423 423.271C727.918 371.188 709.852 342.351 658.85 278.691C601.54 207.159 578.842 167.363 554.602 95.925C539.103 50.244 530.576 15.0464 523.057 -34.3047C518.875 -61.7477 519.533 -115.945 524.712 -170.454C529.996 -226.066 527.976 -275.138 518.348 -325.102C514.01 -347.618 513.684 -349.033 507.796 -371.021C482.78 -464.45 450.47 -527.328 389.261 -601.689C324.764 -680.046 295.008 -736.118 270.108 -826.226C266.763 -838.334 263.412 -850.238 262.664 -852.68C261.189 -857.493 256.252 -881.323 253.775 -895.597C246.971 -934.775 245.895 -985.235 250.649 -1042.1C252.214 -1060.83 253.708 -1082.47 253.969 -1090.2L254.444 -1104.26L94.2255 -1104.64C6.10455 -1104.84 -65.993 -1104.5 -65.993 -1103.88C-65.993 -1103.26 -62.2396 -1093.43 -57.6513 -1082.05C-49.7699 -1062.49 -47.387 -1055.46 -40.8598 -1032.49C-34.7308 -1010.92 -29.3463 -978.047 -26.0724 -942.213C-25.2169 -932.853 -23.8108 -917.536 -22.9479 -908.176C-19.0035 -865.429 -13.4916 -836.272 -2.80402 -801.624C11.9953 -753.643 39.7526 -696.564 73.7515 -644.19C99.3776 -604.715 133.863 -567.437 184.88 -524.06C272.317 -449.718 313.385 -395.328 360.244 -291.804C386.116 -234.647 396.386 -190.668 405.521 -97.9396C412.891 -23.1271 429.77 33.8824 465.195 103.628C502.631 177.33 544.276 231.531 600.889 280.233C608.97 287.184 624.574 300.616 635.564 310.082C678.132 346.744 695.544 365.742 730.219 413.357C739.146 425.615 749.53 442.81 749.53 445.333C749.53 447.635 742.842 440.094 734.953 428.899C702.62 383.012 669.959 352.442 594.862 297.78C531.822 251.894 494.968 213.795 454.007 152.161C401.629 73.3479 377.691 15.3083 361.841 -71.3018C346.978 -152.519 339.096 -181.803 321.015 -222.99C277.28 -322.605 208.93 -409.03 127.773 -467.333C71.2279 -507.955 59.8285 -517.26 30.1988 -546.988C-35.7505 -613.152 -95.0662 -713.356 -117.674 -796.794C-121.453 -810.74 -129.543 -849.683 -134.204 -876.358C-135.056 -881.242 -136.329 -887.901 -137.031 -891.157C-137.732 -894.413 -139.42 -902.737 -140.78 -909.655C-150.534 -959.242 -171.138 -1013.75 -196.046 -1055.86C-198.595 -1060.17 -200.68 -1063.94 -200.68 -1064.23C-200.68 -1064.53 -205.098 -1071.99 -210.497 -1080.82C-215.897 -1089.64 -221.391 -1098.69 -222.708 -1100.92L-225.101 -1104.98L-517.121 -1104.99C-767.548 -1105 -808.97 -1104.7 -807.956 -1102.92Z" fill="url(#paint0_radial_23009_13866)" fill-opacity="0.23"/>
<defs>
<radialGradient id="paint0_radial_23009_13866" cx="0" cy="0" r="1" gradientUnits="userSpaceOnUse" gradientTransform="translate(723 509.5) rotate(90.253) scale(906.009 895.482)">
<stop stop-color="#00FF00"/>
<stop offset="1"/>
</radialGradient>
</defs>
</svg>
