<svg width="25" height="25" viewBox="0 0 25 25" fill="none" xmlns="http://www.w3.org/2000/svg">
<path fill-rule="evenodd" clip-rule="evenodd" d="M16.186 3.41016H8.18604C5.42461 3.41016 3.18604 5.64873 3.18604 8.41016V16.4102C3.18604 19.1716 5.42461 21.4102 8.18604 21.4102H16.186C18.9475 21.4102 21.186 19.1716 21.186 16.4102V8.41016C21.186 5.64873 18.9475 3.41016 16.186 3.41016ZM19.436 16.4102C19.4305 18.2028 17.9787 19.6547 16.186 19.6602H8.18604C6.39339 19.6547 4.94153 18.2028 4.93604 16.4102V8.41016C4.94153 6.61751 6.39339 5.16565 8.18604 5.16016H16.186C17.9787 5.16565 19.4305 6.61751 19.436 8.41016V16.4102ZM16.936 8.66016C17.4883 8.66016 17.936 8.21244 17.936 7.66016C17.936 7.10787 17.4883 6.66016 16.936 6.66016C16.3837 6.66016 15.936 7.10787 15.936 7.66016C15.936 8.21244 16.3837 8.66016 16.936 8.66016ZM12.186 7.91016C9.70075 7.91016 7.68604 9.92487 7.68604 12.4102C7.68604 14.8954 9.70075 16.9102 12.186 16.9102C14.6713 16.9102 16.686 14.8954 16.686 12.4102C16.6887 11.2159 16.2154 10.0697 15.371 9.22524C14.5265 8.38074 13.3803 7.90749 12.186 7.91016ZM9.43604 12.4102C9.43604 13.9289 10.6673 15.1602 12.186 15.1602C13.7048 15.1602 14.936 13.9289 14.936 12.4102C14.936 10.8914 13.7048 9.66016 12.186 9.66016C10.6673 9.66016 9.43604 10.8914 9.43604 12.4102Z" fill="white"/>
</svg>
