<svg width="25" height="25" viewBox="0 0 25 25" fill="none" xmlns="http://www.w3.org/2000/svg">
<path fill-rule="evenodd" clip-rule="evenodd" d="M20.1859 4.90014L18.7259 4.75014C14.3577 4.29683 9.95421 4.29683 5.58594 4.75014L4.18594 4.90014C2.45746 5.09551 1.1595 6.57086 1.18594 8.31014V16.5101C1.1595 18.2494 2.45746 19.7248 4.18594 19.9201L5.64594 20.0701C7.81855 20.2971 10.0015 20.4105 12.1859 20.4101C14.3804 20.4116 16.5734 20.2981 18.7559 20.0701L20.1859 19.9201C21.9144 19.7248 23.2124 18.2494 23.1859 16.5101V8.31014C23.2124 6.57086 21.9144 5.09551 20.1859 4.90014ZM21.1859 16.5101C21.2138 17.2156 20.7046 17.8284 20.0059 17.9301L18.5459 18.0801C16.4331 18.3003 14.3102 18.4104 12.1859 18.4101C10.0617 18.4104 7.93879 18.3003 5.82594 18.0801L4.36594 17.9301C3.66727 17.8284 3.1581 17.2156 3.18594 16.5101V8.31014C3.1581 7.60464 3.66727 6.99192 4.36594 6.89014L5.82594 6.74014C10.0545 6.30013 14.3174 6.30013 18.5459 6.74014L20.0059 6.89014C20.7046 6.99192 21.2138 7.60464 21.1859 8.31014V16.5101ZM10.5848 9.14881C10.8297 9.01901 11.1263 9.03491 11.3559 9.19014L15.2459 11.7901C15.4556 11.9267 15.582 12.16 15.582 12.4101C15.582 12.6603 15.4556 12.8936 15.2459 13.0301L11.3559 15.6301C11.1263 15.7854 10.8297 15.8013 10.5848 15.6715C10.3398 15.5417 10.1864 15.2874 10.1859 15.0101V9.81014C10.1864 9.53293 10.3398 9.27861 10.5848 9.14881Z" fill="white"/>
</svg>
