<svg width="25" height="25" viewBox="0 0 25 25" fill="none" xmlns="http://www.w3.org/2000/svg">
<path fill-rule="evenodd" clip-rule="evenodd" d="M12.1861 2.41016C6.66312 2.41016 2.18604 6.88719 2.18604 12.4102C2.18604 17.9331 6.66312 22.4102 12.1861 22.4102C17.7092 22.4102 22.186 17.9329 22.186 12.4102C22.186 6.88739 17.709 2.41016 12.1861 2.41016ZM14.5098 9.70852V10.0303H14.5093V14.3562C14.5093 15.123 14.2819 15.8726 13.8559 16.5102C13.4299 17.1477 12.8244 17.6446 12.1159 17.9381C11.4075 18.2315 10.628 18.3083 9.8759 18.1587C9.12383 18.0091 8.43301 17.6399 7.89079 17.0977C7.34858 16.5555 6.97933 15.8646 6.82973 15.1126C6.68014 14.3605 6.75692 13.581 7.05036 12.8725C7.3438 12.1641 7.84073 11.5586 8.47831 11.1326C9.11588 10.7066 9.86547 10.4792 10.6323 10.4792H11.3517V12.5173H10.6323C10.2687 12.5172 9.91332 12.6249 9.61097 12.8268C9.30861 13.0287 9.07287 13.3156 8.93354 13.6514C8.7942 13.9872 8.75751 14.3567 8.82812 14.7133C8.89872 15.07 9.07344 15.3977 9.33021 15.655C9.58697 15.9124 9.91426 16.0879 10.2707 16.1593C10.6272 16.2308 10.9968 16.1949 11.3329 16.0564C11.669 15.9178 11.9565 15.6828 12.1591 15.3809C12.3617 15.079 12.4702 14.7239 12.471 14.3603V6.58644H14.5008L14.6024 6.77459C14.9184 7.36025 15.3447 7.91542 15.8732 8.32539C16.2819 8.64225 16.7445 8.86579 17.2555 8.95499L17.6168 9.01841L17.2291 10.9832L16.8819 10.9212C16.4685 10.8473 16.0625 10.7219 15.6824 10.5427C15.2459 10.3377 14.8413 10.0599 14.5098 9.70852Z" fill="white"/>
</svg>
