<svg viewBox="0 0 305 305" fill="none" xmlns="http://www.w3.org/2000/svg">
<path d="M264.18 86.6661C252.806 67.0237 236.486 50.7031 216.843 39.3291L152.181 151.328H281.487C281.522 128.625 275.551 106.317 264.18 86.6661Z" fill="#00FF00"/>
<path d="M152.182 151.328L87.5199 263.327C107.184 274.665 129.483 280.634 152.182 280.634C174.881 280.634 197.18 274.665 216.844 263.327L152.182 151.328Z" fill="#00FF00"/>
<path d="M152.181 151.328L216.843 263.327C236.505 251.98 252.831 235.654 264.179 215.993C275.527 196.332 281.496 174.029 281.487 151.328H152.181Z" fill="#E128FF"/>
<path d="M152.182 22.0226C129.479 21.9878 107.17 27.9585 87.5199 39.329L152.182 151.328L216.844 39.329C197.194 27.9585 174.885 21.9878 152.182 22.0226Z" fill="#E128FF"/>
<path d="M87.5194 39.3291C67.858 50.6764 51.5319 67.002 40.184 86.6631C28.836 106.324 22.8665 128.627 22.876 151.328H152.181L87.5194 39.3291Z" fill="#00FF00"/>
<path d="M152.181 151.328H22.876C22.8665 174.029 28.836 196.332 40.184 215.993C51.5319 235.654 67.858 251.98 87.5194 263.327L152.181 151.328Z" fill="#E128FF"/>
<path d="M152.081 280.67C120.089 280.627 89.254 268.704 65.5562 247.213C41.8585 225.721 26.9878 196.194 23.8288 164.359C20.6697 132.524 29.4476 100.651 48.4596 74.9212C67.4715 49.1919 95.3623 31.4412 126.722 25.1124C158.081 18.7836 190.673 24.3279 218.176 40.6698C245.678 57.0117 266.131 82.9862 275.566 113.555C285.001 144.123 282.746 177.107 269.238 206.106C255.73 235.106 231.933 258.055 202.462 270.502C186.523 277.246 169.387 280.704 152.081 280.67ZM152.081 35.2008C88.0966 35.2008 36.0414 87.256 36.0414 151.24C36.0414 215.224 88.0966 267.279 152.081 267.279C216.065 267.279 268.12 215.224 268.12 151.24C268.12 87.256 216.065 35.2008 152.081 35.2008Z" fill="#555B5A"/>
<path style="mix-blend-mode:multiply" opacity="0.4" d="M152.281 271.51C218.749 271.51 272.631 217.628 272.631 151.16C272.631 84.6923 218.749 30.8096 152.281 30.8096C85.8134 30.8096 31.9307 84.6923 31.9307 151.16C31.9307 217.628 85.8134 271.51 152.281 271.51Z" fill="url(#paint0_radial_23009_17418)"/>
<g filter="url(#filter0_d_23009_17418)">
<path d="M152.182 22.0229C223.595 22.0229 281.487 79.9156 281.487 151.328C281.487 222.741 223.595 280.634 152.182 280.634C80.7689 280.634 22.8762 222.741 22.8762 151.328C22.8762 79.9156 80.7689 22.0229 152.182 22.0229ZM152.182 13.5186C142.856 13.5168 133.554 14.4548 124.417 16.3182C106.784 19.9336 90.035 26.9845 75.1254 37.0689C52.9739 52.0214 35.634 73.077 25.2064 97.6846C21.6808 106.025 18.9894 114.693 17.1715 123.563C13.4387 141.885 13.4387 160.772 17.1715 179.093C20.7869 196.726 27.8378 213.475 37.9222 228.385C52.877 250.537 73.9357 267.878 98.5464 278.304C106.886 281.829 115.555 284.521 124.425 286.339C142.747 290.071 161.633 290.071 179.955 286.339C197.588 282.723 214.337 275.672 229.247 265.588C251.399 250.633 268.739 229.574 279.165 204.964C282.691 196.624 285.383 187.955 287.2 179.085C290.933 160.763 290.933 141.877 287.2 123.555C283.585 105.922 276.534 89.1731 266.45 74.2635C251.495 52.1108 230.436 34.7708 205.826 24.3446C197.486 20.819 188.817 18.1275 179.947 16.3097C170.809 14.4491 161.507 13.514 152.182 13.5186Z" fill="#4D4D4D"/>
</g>
<path d="M125.928 20.7529C158.394 14.2009 192.135 19.9401 220.608 36.8584C249.081 53.7767 270.254 80.6678 280.022 112.314C289.79 143.961 287.456 178.108 273.471 208.131C259.487 238.154 234.85 261.912 204.34 274.798C187.839 281.78 170.099 285.36 152.182 285.324C119.063 285.28 87.1388 272.936 62.6052 250.687C38.0718 228.437 22.6764 197.869 19.406 164.911C16.1355 131.953 25.2234 98.9552 44.906 72.3184C64.5886 45.6815 93.4632 27.305 125.928 20.7529ZM152.181 30.7354C85.6864 30.7355 31.5887 84.8331 31.5886 151.328C31.5886 217.823 85.6863 271.921 152.181 271.921C218.677 271.921 272.775 217.823 272.775 151.328C272.775 84.833 218.677 30.7354 152.181 30.7354Z" fill="#8E9897" stroke="#AAAAAA" stroke-width="0.485166"/>
<mask id="path-11-outside-1_23009_17418" maskUnits="userSpaceOnUse" x="131.875" y="54.0381" width="41" height="31" fill="black">
<rect fill="white" x="131.875" y="54.0381" width="41" height="31"/>
<path d="M135.179 62.1177H133.044V57.4989C135.024 57.4989 135.567 57.1108 135.567 55.6359H139.953V83.0381H135.179V62.1177ZM149.315 83.3486C145.55 83.3486 142.95 80.6317 142.95 76.7503V62.0013C142.95 58.0811 145.55 55.3642 149.315 55.3642C153.041 55.3642 155.681 58.0811 155.681 62.0013V76.7503C155.681 80.6317 153.041 83.3486 149.315 83.3486ZM147.724 76.9056C147.724 78.5357 148.617 78.7298 149.315 78.7298C149.975 78.7298 150.868 78.5357 150.868 76.9056V61.8072C150.868 60.1771 150.053 59.983 149.315 59.983C148.578 59.983 147.724 60.1771 147.724 61.8072V76.9056ZM164.78 83.3486C161.015 83.3486 158.414 80.6317 158.414 76.7503V62.0013C158.414 58.0811 161.015 55.3642 164.78 55.3642C168.506 55.3642 171.145 58.0811 171.145 62.0013V76.7503C171.145 80.6317 168.506 83.3486 164.78 83.3486ZM163.189 76.9056C163.189 78.5357 164.081 78.7298 164.78 78.7298C165.44 78.7298 166.332 78.5357 166.332 76.9056V61.8072C166.332 60.1771 165.517 59.983 164.78 59.983C164.042 59.983 163.189 60.1771 163.189 61.8072V76.9056Z"/>
</mask>
<path d="M135.179 62.1177H133.044V57.4989C135.024 57.4989 135.567 57.1108 135.567 55.6359H139.953V83.0381H135.179V62.1177ZM149.315 83.3486C145.55 83.3486 142.95 80.6317 142.95 76.7503V62.0013C142.95 58.0811 145.55 55.3642 149.315 55.3642C153.041 55.3642 155.681 58.0811 155.681 62.0013V76.7503C155.681 80.6317 153.041 83.3486 149.315 83.3486ZM147.724 76.9056C147.724 78.5357 148.617 78.7298 149.315 78.7298C149.975 78.7298 150.868 78.5357 150.868 76.9056V61.8072C150.868 60.1771 150.053 59.983 149.315 59.983C148.578 59.983 147.724 60.1771 147.724 61.8072V76.9056ZM164.78 83.3486C161.015 83.3486 158.414 80.6317 158.414 76.7503V62.0013C158.414 58.0811 161.015 55.3642 164.78 55.3642C168.506 55.3642 171.145 58.0811 171.145 62.0013V76.7503C171.145 80.6317 168.506 83.3486 164.78 83.3486ZM163.189 76.9056C163.189 78.5357 164.081 78.7298 164.78 78.7298C165.44 78.7298 166.332 78.5357 166.332 76.9056V61.8072C166.332 60.1771 165.517 59.983 164.78 59.983C164.042 59.983 163.189 60.1771 163.189 61.8072V76.9056Z" fill="url(#paint1_linear_23009_17418)"/>
<path d="M135.179 62.1177H136.149V61.1474H135.179V62.1177ZM133.044 62.1177H132.074V63.0881H133.044V62.1177ZM133.044 57.4989V56.5286H132.074V57.4989H133.044ZM135.567 55.6359V54.6656H134.597V55.6359H135.567ZM139.953 55.6359H140.923V54.6656H139.953V55.6359ZM139.953 83.0381V84.0084H140.923V83.0381H139.953ZM135.179 83.0381H134.209V84.0084H135.179V83.0381ZM135.179 62.1177V61.1474H133.044V62.1177V63.0881H135.179V62.1177ZM133.044 62.1177H134.015V57.4989H133.044H132.074V62.1177H133.044ZM133.044 57.4989V58.4693C134.014 58.4693 134.953 58.3938 135.622 57.9027C136.399 57.3324 136.537 56.4431 136.537 55.6359H135.567H134.597C134.597 55.9572 134.565 56.139 134.531 56.2403C134.505 56.3182 134.485 56.33 134.474 56.3384C134.444 56.3604 134.348 56.4158 134.101 56.4604C133.855 56.5048 133.516 56.5286 133.044 56.5286V57.4989ZM135.567 55.6359V56.6062H139.953V55.6359V54.6656H135.567V55.6359ZM139.953 55.6359H138.983V83.0381H139.953H140.923V55.6359H139.953ZM139.953 83.0381V82.0678H135.179V83.0381V84.0084H139.953V83.0381ZM135.179 83.0381H136.149V62.1177H135.179H134.209V83.0381H135.179ZM149.315 83.3486V82.3783C147.675 82.3783 146.343 81.7915 145.42 80.8321C144.494 79.8697 143.92 78.4712 143.92 76.7503H142.95H141.979C141.979 78.9108 142.706 80.8114 144.022 82.1779C145.34 83.5472 147.19 84.3189 149.315 84.3189V83.3486ZM142.95 76.7503H143.92V62.0013H142.95H141.979V76.7503H142.95ZM142.95 62.0013H143.92C143.92 60.2586 144.495 58.8503 145.421 57.8841C146.344 56.9211 147.675 56.3345 149.315 56.3345V55.3642V54.3939C147.19 54.3939 145.339 55.1657 144.02 56.5413C142.705 57.9136 141.979 59.8239 141.979 62.0013H142.95ZM149.315 55.3642V56.3345C150.934 56.3345 152.266 56.9198 153.196 57.8857C154.128 58.8538 154.71 60.2625 154.71 62.0013H155.681H156.651C156.651 59.8199 155.913 57.9101 154.594 56.5397C153.273 55.1671 151.423 54.3939 149.315 54.3939V55.3642ZM155.681 62.0013H154.71V76.7503H155.681H156.651V62.0013H155.681ZM155.681 76.7503H154.71C154.71 78.4672 154.13 79.8662 153.198 80.8306C152.267 81.7928 150.934 82.3783 149.315 82.3783V83.3486V84.3189C151.423 84.3189 153.272 83.5459 154.593 82.1794C155.912 80.8149 156.651 78.9148 156.651 76.7503H155.681ZM147.724 76.9056H146.754C146.754 77.8903 147.028 78.6801 147.646 79.1821C148.225 79.6526 148.909 79.7001 149.315 79.7001V78.7298V77.7595C149.022 77.7595 148.911 77.71 148.869 77.6759C148.866 77.6733 148.694 77.551 148.694 76.9056H147.724ZM149.315 78.7298V79.7001C149.71 79.7001 150.384 79.6499 150.957 79.1774C151.564 78.6762 151.838 77.8907 151.838 76.9056H150.868H149.897C149.897 77.5506 149.725 77.6773 149.721 77.6807C149.682 77.7127 149.58 77.7595 149.315 77.7595V78.7298ZM150.868 76.9056H151.838V61.8072H150.868H149.897V76.9056H150.868ZM150.868 61.8072H151.838C151.838 60.8502 151.599 60.0577 150.998 59.5454C150.424 59.0567 149.732 59.0127 149.315 59.0127V59.983V60.9533C149.636 60.9533 149.72 61.0063 149.739 61.0222C149.742 61.0256 149.777 61.0535 149.815 61.1594C149.855 61.2742 149.897 61.4757 149.897 61.8072H150.868ZM149.315 59.983V59.0127C148.898 59.0127 148.205 59.0573 147.625 59.5355C147.01 60.0431 146.754 60.8365 146.754 61.8072H147.724H148.694C148.694 61.4798 148.738 61.2825 148.779 61.1713C148.817 61.0691 148.852 61.0393 148.861 61.0321C148.893 61.0057 148.995 60.9533 149.315 60.9533V59.983ZM147.724 61.8072H146.754V76.9056H147.724H148.694V61.8072H147.724ZM164.78 83.3486V82.3783C163.14 82.3783 161.808 81.7915 160.884 80.8321C159.958 79.8697 159.385 78.4712 159.385 76.7503H158.414H157.444C157.444 78.9108 158.171 80.8114 159.486 82.1779C160.804 83.5472 162.655 84.3189 164.78 84.3189V83.3486ZM158.414 76.7503H159.385V62.0013H158.414H157.444V76.7503H158.414ZM158.414 62.0013H159.385C159.385 60.2586 159.96 58.8503 160.886 57.8841C161.809 56.9211 163.14 56.3345 164.78 56.3345V55.3642V54.3939C162.655 54.3939 160.803 55.1657 159.485 56.5413C158.169 57.9136 157.444 59.8239 157.444 62.0013H158.414ZM164.78 55.3642V56.3345C166.398 56.3345 167.731 56.9198 168.661 57.8857C169.593 58.8538 170.175 60.2625 170.175 62.0013H171.145H172.116C172.116 59.8199 171.378 57.9101 170.059 56.5397C168.737 55.1671 166.887 54.3939 164.78 54.3939V55.3642ZM171.145 62.0013H170.175V76.7503H171.145H172.116V62.0013H171.145ZM171.145 76.7503H170.175C170.175 78.4672 169.594 79.8662 168.662 80.8306C167.732 81.7928 166.399 82.3783 164.78 82.3783V83.3486V84.3189C166.887 84.3189 168.736 83.5459 170.057 82.1794C171.376 80.8149 172.116 78.9148 172.116 76.7503H171.145ZM163.189 76.9056H162.218C162.218 77.8903 162.493 78.6801 163.11 79.1821C163.689 79.6526 164.374 79.7001 164.78 79.7001V78.7298V77.7595C164.487 77.7595 164.376 77.71 164.334 77.6759C164.331 77.6733 164.159 77.551 164.159 76.9056H163.189ZM164.78 78.7298V79.7001C165.175 79.7001 165.849 79.6499 166.421 79.1774C167.028 78.6762 167.303 77.8907 167.303 76.9056H166.332H165.362C165.362 77.5506 165.19 77.6773 165.186 77.6807C165.147 77.7127 165.045 77.7595 164.78 77.7595V78.7298ZM166.332 76.9056H167.303V61.8072H166.332H165.362V76.9056H166.332ZM166.332 61.8072H167.303C167.303 60.8502 167.063 60.0577 166.462 59.5454C165.889 59.0567 165.196 59.0127 164.78 59.0127V59.983V60.9533C165.101 60.9533 165.185 61.0063 165.203 61.0222C165.207 61.0256 165.242 61.0535 165.279 61.1594C165.32 61.2742 165.362 61.4757 165.362 61.8072H166.332ZM164.78 59.983V59.0127C164.363 59.0127 163.669 59.0573 163.09 59.5355C162.475 60.0431 162.218 60.8365 162.218 61.8072H163.189H164.159C164.159 61.4798 164.202 61.2825 164.243 61.1713C164.281 61.0691 164.317 61.0393 164.325 61.0321C164.357 61.0057 164.459 60.9533 164.78 60.9533V59.983ZM163.189 61.8072H162.218V76.9056H163.189H164.159V61.8072H163.189Z" fill="#2F2F2F" fill-opacity="0.6" mask="url(#path-11-outside-1_23009_17418)"/>
<g filter="url(#filter1_d_23009_17418)">
<path d="M139.41 98.6798C137.522 98.6798 136.204 97.43 136.204 95.3787V88.9668H138.079V95.4466C138.079 96.5062 138.676 96.9002 139.41 96.9002C140.103 96.9002 140.755 96.5062 140.755 95.4466V88.9668H142.63V95.3787C142.63 97.4164 141.298 98.6798 139.41 98.6798ZM148.009 98.707C146.066 98.707 144.735 97.4436 144.735 95.3923H146.61C146.61 96.5062 147.18 96.9681 148.009 96.9681C148.797 96.9681 149.381 96.6013 149.381 95.8134C149.381 95.0119 148.512 94.7538 147.52 94.4414C146.27 94.0203 144.857 93.504 144.857 91.6022C144.857 89.8498 146.107 88.7902 148.009 88.7902C149.856 88.7902 151.133 90.0264 151.133 91.9961H149.286C149.286 90.9773 148.783 90.5018 147.982 90.5018C147.18 90.5018 146.732 90.8822 146.732 91.6022C146.732 92.4173 147.547 92.6754 148.498 92.9742C149.761 93.3682 151.256 93.8301 151.256 95.7998C151.256 97.6202 149.951 98.707 148.009 98.707ZM153.551 98.5439V88.9668H156.703C158.604 88.9668 159.922 90.135 159.922 92.4716V94.9984C159.922 97.3077 158.604 98.5439 156.703 98.5439H153.551ZM155.426 96.7644H156.485C157.382 96.7644 158.061 96.4112 158.061 94.5365V92.6754C158.061 91.6429 157.789 90.7599 156.485 90.7599H155.426V96.7644ZM165.383 98.6934C163.481 98.6934 162.163 97.3349 162.163 95.3787V92.0912C162.163 90.1486 163.481 88.7902 165.383 88.7902C167.502 88.7902 168.602 90.1758 168.602 92.3901V92.4173H166.728V92.2814C166.728 90.8686 166.035 90.5833 165.383 90.5833C164.731 90.5833 164.051 90.9365 164.051 92.0369V95.4331C164.051 96.5606 164.731 96.9002 165.383 96.9002C166.252 96.9002 166.728 96.4791 166.728 95.0799V94.9576H168.602V95.0119C168.602 97.4164 167.543 98.6934 165.383 98.6934Z" fill="white"/>
</g>
<mask id="path-14-outside-2_23009_17418" maskUnits="userSpaceOnUse" x="137.144" y="224.986" width="31" height="31" fill="black">
<rect fill="white" x="137.144" y="224.986" width="31" height="31"/>
<path d="M166.263 230.751C166.263 235.059 163.895 238.747 161.76 241.929C160.053 244.491 158.5 246.703 158.5 248.605C158.5 249.77 159.199 250.119 160.014 250.119C160.868 250.119 161.566 249.77 161.566 248.295L166.263 248.295C166.263 252.137 163.662 254.66 160.053 254.66C156.365 254.66 153.765 252.215 153.765 248.683C153.765 245.539 155.938 242.279 157.957 239.174C159.742 236.418 161.45 233.817 161.45 231.605L153.959 231.605L153.959 226.986L166.263 226.986L166.263 230.751ZM144.951 226.676C148.715 226.676 151.316 229.393 151.316 233.274L151.316 248.023C151.316 251.943 148.715 254.66 144.951 254.66C141.224 254.66 138.585 251.943 138.585 248.023L138.585 233.274C138.585 229.393 141.224 226.676 144.951 226.676ZM146.542 233.119C146.542 231.489 145.649 231.295 144.951 231.295C144.291 231.295 143.398 231.489 143.398 233.119L143.398 248.217C143.398 249.847 144.213 250.041 144.951 250.041C145.688 250.041 146.542 249.847 146.542 248.217L146.542 233.119Z"/>
</mask>
<path d="M166.263 230.751C166.263 235.059 163.895 238.747 161.76 241.929C160.053 244.491 158.5 246.703 158.5 248.605C158.5 249.77 159.199 250.119 160.014 250.119C160.868 250.119 161.566 249.77 161.566 248.295L166.263 248.295C166.263 252.137 163.662 254.66 160.053 254.66C156.365 254.66 153.765 252.215 153.765 248.683C153.765 245.539 155.938 242.279 157.957 239.174C159.742 236.418 161.45 233.817 161.45 231.605L153.959 231.605L153.959 226.986L166.263 226.986L166.263 230.751ZM144.951 226.676C148.715 226.676 151.316 229.393 151.316 233.274L151.316 248.023C151.316 251.943 148.715 254.66 144.951 254.66C141.224 254.66 138.585 251.943 138.585 248.023L138.585 233.274C138.585 229.393 141.224 226.676 144.951 226.676ZM146.542 233.119C146.542 231.489 145.649 231.295 144.951 231.295C144.291 231.295 143.398 231.489 143.398 233.119L143.398 248.217C143.398 249.847 144.213 250.041 144.951 250.041C145.688 250.041 146.542 249.847 146.542 248.217L146.542 233.119Z" fill="url(#paint2_linear_23009_17418)"/>
<path d="M161.76 241.929L160.954 241.389L160.953 241.391L161.76 241.929ZM161.566 248.295L161.566 247.324L160.596 247.324L160.596 248.295L161.566 248.295ZM166.263 248.295L167.233 248.295L167.233 247.324L166.263 247.324L166.263 248.295ZM157.957 239.174L158.77 239.703L158.771 239.701L157.957 239.174ZM161.45 231.605L162.42 231.605L162.42 230.635L161.45 230.635L161.45 231.605ZM153.959 231.605L152.989 231.605L152.989 232.575L153.959 232.575L153.959 231.605ZM153.959 226.986L153.959 226.016L152.989 226.016L152.989 226.986L153.959 226.986ZM166.263 226.986L167.233 226.986L167.233 226.016L166.263 226.016L166.263 226.986ZM166.263 230.751L165.292 230.751C165.292 234.724 163.109 238.177 160.954 241.389L161.76 241.929L162.566 242.47C164.681 239.316 167.233 235.395 167.233 230.751L166.263 230.751ZM161.76 241.929L160.953 241.391C160.113 242.652 159.265 243.892 158.636 245.053C158.012 246.205 157.53 247.408 157.53 248.605L158.5 248.605L159.47 248.605C159.47 247.901 159.764 247.046 160.343 245.977C160.918 244.915 161.7 243.769 162.568 242.468L161.76 241.929ZM158.5 248.605L157.53 248.605C157.53 249.388 157.773 250.075 158.326 250.541C158.848 250.98 159.49 251.089 160.014 251.089L160.014 250.119L160.014 249.149C159.722 249.149 159.608 249.083 159.576 249.057C159.565 249.047 159.545 249.028 159.523 248.974C159.5 248.915 159.47 248.801 159.47 248.605L158.5 248.605ZM160.014 250.119L160.014 251.089C160.55 251.089 161.24 250.983 161.784 250.458C162.332 249.93 162.537 249.165 162.537 248.295L161.566 248.295L160.596 248.295C160.596 248.899 160.452 249.047 160.436 249.062C160.417 249.08 160.332 249.149 160.014 249.149L160.014 250.119ZM161.566 248.295L161.566 249.265L166.263 249.265L166.263 248.295L166.263 247.324L161.566 247.324L161.566 248.295ZM166.263 248.295L165.292 248.295C165.292 249.991 164.722 251.327 163.822 252.235C162.921 253.144 161.626 253.69 160.053 253.69L160.053 254.66L160.053 255.631C162.089 255.631 163.898 254.915 165.2 253.602C166.503 252.288 167.233 250.441 167.233 248.295L166.263 248.295ZM160.053 254.66L160.053 253.69C158.426 253.69 157.102 253.153 156.193 252.292C155.288 251.434 154.735 250.201 154.735 248.683L153.765 248.683L152.794 248.683C152.794 250.697 153.541 252.452 154.858 253.7C156.172 254.945 157.992 255.631 160.053 255.631L160.053 254.66ZM153.765 248.683L154.735 248.683C154.735 247.327 155.206 245.883 155.972 244.347C156.738 242.811 157.751 241.27 158.77 239.703L157.957 239.174L157.143 238.645C156.144 240.182 155.061 241.825 154.235 243.481C153.41 245.137 152.794 246.895 152.794 248.683L153.765 248.683ZM157.957 239.174L158.771 239.701C159.655 238.337 160.559 236.952 161.237 235.627C161.91 234.312 162.42 232.943 162.42 231.605L161.45 231.605L160.479 231.605C160.479 232.48 160.136 233.517 159.509 234.744C158.886 235.961 158.044 237.255 157.142 238.646L157.957 239.174ZM161.45 231.605L161.45 230.635L153.959 230.635L153.959 231.605L153.959 232.575L161.45 232.575L161.45 231.605ZM153.959 231.605L154.929 231.605L154.929 226.986L153.959 226.986L152.989 226.986L152.989 231.605L153.959 231.605ZM153.959 226.986L153.959 227.957L166.263 227.957L166.263 226.986L166.263 226.016L153.959 226.016L153.959 226.986ZM166.263 226.986L165.292 226.986L165.292 230.751L166.263 230.751L167.233 230.751L167.233 226.986L166.263 226.986ZM144.951 226.676L144.951 227.646C146.591 227.646 147.922 228.233 148.846 229.192C149.772 230.155 150.346 231.553 150.346 233.274L151.316 233.274L152.286 233.274C152.286 231.114 151.559 229.213 150.244 227.847C148.926 226.477 147.075 225.705 144.951 225.705L144.951 226.676ZM151.316 233.274L150.346 233.274L150.346 248.023L151.316 248.023L152.286 248.023L152.286 233.274L151.316 233.274ZM151.316 248.023L150.346 248.023C150.346 249.766 149.771 251.174 148.845 252.14C147.921 253.103 146.59 253.69 144.951 253.69L144.951 254.66L144.951 255.631C147.075 255.631 148.927 254.859 150.246 253.483C151.561 252.111 152.286 250.201 152.286 248.023L151.316 248.023ZM144.951 254.66L144.951 253.69C143.332 253.69 141.999 253.105 141.07 252.139C140.138 251.171 139.555 249.762 139.555 248.023L138.585 248.023L137.615 248.023C137.615 250.205 138.352 252.114 139.671 253.485C140.993 254.857 142.843 255.631 144.951 255.631L144.951 254.66ZM138.585 248.023L139.555 248.023L139.555 233.274L138.585 233.274L137.615 233.274L137.615 248.023L138.585 248.023ZM138.585 233.274L139.555 233.274C139.555 231.557 140.136 230.158 141.068 229.194C141.998 228.232 143.332 227.646 144.951 227.646L144.951 226.676L144.951 225.705C142.843 225.705 140.994 226.478 139.673 227.845C138.354 229.209 137.615 231.11 137.615 233.274L138.585 233.274ZM146.542 233.119L147.512 233.119C147.512 232.134 147.238 231.344 146.62 230.842C146.041 230.372 145.356 230.324 144.951 230.324L144.951 231.295L144.951 232.265C145.243 232.265 145.354 232.314 145.396 232.348C145.4 232.351 145.572 232.473 145.572 233.119L146.542 233.119ZM144.951 231.295L144.951 230.324C144.556 230.324 143.882 230.375 143.309 230.847C142.702 231.348 142.428 232.134 142.428 233.119L143.398 233.119L144.368 233.119C144.368 232.474 144.54 232.347 144.545 232.344C144.583 232.312 144.685 232.265 144.951 232.265L144.951 231.295ZM143.398 233.119L142.428 233.119L142.428 248.217L143.398 248.217L144.368 248.217L144.368 233.119L143.398 233.119ZM143.398 248.217L142.428 248.217C142.428 249.174 142.667 249.967 143.268 250.479C143.841 250.968 144.534 251.012 144.951 251.012L144.951 250.041L144.951 249.071C144.629 249.071 144.546 249.018 144.527 249.002C144.523 248.999 144.489 248.971 144.451 248.865C144.41 248.75 144.368 248.549 144.368 248.217L143.398 248.217ZM144.951 250.041L144.951 251.012C145.368 251.012 146.061 250.967 146.64 250.489C147.255 249.981 147.512 249.188 147.512 248.217L146.542 248.217L145.572 248.217C145.572 248.545 145.528 248.742 145.487 248.853C145.449 248.955 145.414 248.985 145.405 248.992C145.373 249.019 145.271 249.071 144.951 249.071L144.951 250.041ZM146.542 248.217L147.512 248.217L147.512 233.119L146.542 233.119L145.572 233.119L145.572 248.217L146.542 248.217Z" fill="#2F2F2F" fill-opacity="0.6" mask="url(#path-14-outside-2_23009_17418)"/>
<g filter="url(#filter2_d_23009_17418)">
<path d="M164.609 211.345C166.497 211.345 167.815 212.594 167.815 214.646L167.815 221.058L165.94 221.058L165.94 214.578C165.94 213.518 165.342 213.124 164.609 213.124C163.916 213.124 163.264 213.518 163.264 214.578L163.264 221.058L161.389 221.058L161.389 214.646C161.389 212.608 162.72 211.345 164.609 211.345ZM156.01 211.317C157.952 211.317 159.284 212.581 159.284 214.632L157.409 214.632C157.409 213.518 156.838 213.056 156.01 213.056C155.222 213.056 154.638 213.423 154.638 214.211C154.638 215.012 155.507 215.271 156.499 215.583C157.749 216.004 159.161 216.52 159.161 218.422C159.161 220.175 157.912 221.234 156.01 221.234C154.162 221.234 152.885 219.998 152.885 218.028L154.733 218.028C154.733 219.047 155.235 219.523 156.037 219.523C156.838 219.523 157.287 219.142 157.287 218.422C157.287 217.607 156.472 217.349 155.521 217.05C154.257 216.656 152.763 216.194 152.763 214.225C152.763 212.404 154.067 211.317 156.01 211.317ZM150.468 211.48L150.468 221.058L147.316 221.058C145.414 221.058 144.096 219.889 144.096 217.553L144.096 215.026C144.096 212.717 145.414 211.48 147.316 211.48L150.468 211.48ZM148.593 213.26L147.533 213.26C146.637 213.26 145.958 213.613 145.958 215.488L145.958 217.349C145.958 218.381 146.229 219.264 147.533 219.264L148.593 219.264L148.593 213.26ZM138.636 211.331C140.538 211.331 141.856 212.689 141.856 214.646L141.856 217.933C141.856 219.876 140.538 221.234 138.636 221.234C136.517 221.234 135.416 219.849 135.416 217.634L135.416 217.607L137.291 217.607L137.291 217.743C137.291 219.156 137.984 219.441 138.636 219.441C139.288 219.441 139.967 219.088 139.967 217.988L139.967 214.591C139.967 213.464 139.288 213.124 138.636 213.124C137.767 213.124 137.291 213.545 137.291 214.945L137.291 215.067L135.416 215.067L135.416 215.012C135.416 212.608 136.476 211.331 138.636 211.331Z" fill="white"/>
</g>
<mask id="path-17-outside-3_23009_17418" maskUnits="userSpaceOnUse" x="206.105" y="175.209" width="42.3468" height="42.3468" fill="black">
<rect fill="white" x="206.105" y="175.209" width="42.3468" height="42.3468"/>
<path d="M219.033 183.043C220.896 179.816 224.568 178.889 227.93 180.83L225.523 184.998C224.078 184.163 223.363 184.781 223.033 185.352C222.683 185.958 222.506 186.886 223.851 187.662L229.498 190.922C230.741 191.641 231.379 191.157 231.806 190.418C232.369 189.443 231.65 188.669 231.069 188.2L233.599 184.596L245.129 193.269L240.277 201.673L236.277 199.363L239.266 194.187L234.665 190.589C234.927 191.144 235.028 192.367 234.271 193.678C232.835 196.166 230.472 196.998 227.111 195.057L221.464 191.797C218.102 189.856 217.15 186.304 219.033 183.043ZM211.5 196.091C213.382 192.83 217.035 191.936 220.397 193.877L233.17 201.252C236.565 203.212 237.617 206.822 235.735 210.083C233.872 213.31 230.199 214.237 226.804 212.277L214.031 204.902C210.67 202.962 209.637 199.317 211.5 196.091ZM217.875 197.934C216.464 197.119 215.849 197.795 215.5 198.4C215.17 198.971 214.892 199.842 216.303 200.657L229.379 208.206C230.791 209.021 231.366 208.412 231.735 207.773C232.104 207.135 232.363 206.298 230.951 205.483L217.875 197.934Z"/>
</mask>
<path d="M219.033 183.043C220.896 179.816 224.568 178.889 227.93 180.83L225.523 184.998C224.078 184.163 223.363 184.781 223.033 185.352C222.683 185.958 222.506 186.886 223.851 187.662L229.498 190.922C230.741 191.641 231.379 191.157 231.806 190.418C232.369 189.443 231.65 188.669 231.069 188.2L233.599 184.596L245.129 193.269L240.277 201.673L236.277 199.363L239.266 194.187L234.665 190.589C234.927 191.144 235.028 192.367 234.271 193.678C232.835 196.166 230.472 196.998 227.111 195.057L221.464 191.797C218.102 189.856 217.15 186.304 219.033 183.043ZM211.5 196.091C213.382 192.83 217.035 191.936 220.397 193.877L233.17 201.252C236.565 203.212 237.617 206.822 235.735 210.083C233.872 213.31 230.199 214.237 226.804 212.277L214.031 204.902C210.67 202.962 209.637 199.317 211.5 196.091ZM217.875 197.934C216.464 197.119 215.849 197.795 215.5 198.4C215.17 198.971 214.892 199.842 216.303 200.657L229.379 208.206C230.791 209.021 231.366 208.412 231.735 207.773C232.104 207.135 232.363 206.298 230.951 205.483L217.875 197.934Z" fill="url(#paint3_linear_23009_17418)"/>
<path d="M227.93 180.83L228.77 181.315L229.255 180.474L228.415 179.989L227.93 180.83ZM225.523 184.998L225.038 185.838L225.878 186.323L226.364 185.483L225.523 184.998ZM231.069 188.2L230.275 187.642L229.755 188.384L230.459 188.954L231.069 188.2ZM233.599 184.596L234.182 183.82L233.38 183.217L232.804 184.038L233.599 184.596ZM245.129 193.269L245.969 193.754L246.399 193.01L245.712 192.494L245.129 193.269ZM240.277 201.673L239.792 202.513L240.632 202.998L241.117 202.158L240.277 201.673ZM236.277 199.363L235.437 198.878L234.951 199.718L235.792 200.203L236.277 199.363ZM239.266 194.187L240.106 194.672L240.527 193.942L239.863 193.422L239.266 194.187ZM234.665 190.589L235.262 189.825L233.788 191.004L234.665 190.589ZM219.033 183.043L219.873 183.528C220.682 182.126 221.856 181.264 223.155 180.94C224.456 180.615 225.958 180.812 227.445 181.67L227.93 180.83L228.415 179.989C226.54 178.907 224.525 178.597 222.684 179.057C220.84 179.518 219.246 180.733 218.192 182.558L219.033 183.043ZM227.93 180.83L227.089 180.344L224.683 184.513L225.523 184.998L226.364 185.483L228.77 181.315L227.93 180.83ZM225.523 184.998L226.008 184.157C225.141 183.657 224.319 183.495 223.578 183.719C222.853 183.939 222.425 184.465 222.192 184.867L223.033 185.352L223.873 185.838C223.97 185.669 224.065 185.6 224.141 185.576C224.202 185.558 224.46 185.504 225.038 185.838L225.523 184.998ZM223.033 185.352L222.192 184.867C221.956 185.276 221.711 185.906 221.855 186.631C222.004 187.39 222.531 188.02 223.365 188.502L223.851 187.662L224.336 186.822C223.826 186.528 223.768 186.306 223.758 186.255C223.742 186.171 223.76 186.034 223.873 185.838L223.033 185.352ZM223.851 187.662L223.365 188.502L229.012 191.763L229.498 190.922L229.983 190.082L224.336 186.822L223.851 187.662ZM229.498 190.922L229.012 191.763C229.767 192.199 230.536 192.382 231.267 192.137C231.969 191.901 232.389 191.348 232.646 190.903L231.806 190.418L230.965 189.932C230.796 190.226 230.684 190.285 230.649 190.297C230.644 190.299 230.472 190.364 229.983 190.082L229.498 190.922ZM231.806 190.418L232.646 190.903C233.105 190.108 233.047 189.328 232.739 188.695C232.462 188.125 232 187.705 231.68 187.445L231.069 188.2L230.459 188.954C230.719 189.164 230.907 189.366 230.994 189.544C231.031 189.62 231.04 189.674 231.04 189.714C231.039 189.75 231.031 189.819 230.965 189.932L231.806 190.418ZM231.069 188.2L231.864 188.757L234.393 185.153L233.599 184.596L232.804 184.038L230.275 187.642L231.069 188.2ZM233.599 184.596L233.015 185.371L244.545 194.045L245.129 193.269L245.712 192.494L234.182 183.82L233.599 184.596ZM245.129 193.269L244.288 192.784L239.437 201.187L240.277 201.673L241.117 202.158L245.969 193.754L245.129 193.269ZM240.277 201.673L240.762 200.832L236.762 198.523L236.277 199.363L235.792 200.203L239.792 202.513L240.277 201.673ZM236.277 199.363L237.117 199.848L240.106 194.672L239.266 194.187L238.425 193.702L235.437 198.878L236.277 199.363ZM239.266 194.187L239.863 193.422L235.262 189.825L234.665 190.589L234.067 191.354L238.668 194.951L239.266 194.187ZM234.665 190.589L233.788 191.004C233.897 191.236 234.048 192.123 233.43 193.193L234.271 193.678L235.111 194.163C236.007 192.612 235.957 191.052 235.542 190.174L234.665 190.589ZM234.271 193.678L233.43 193.193C232.803 194.28 232.047 194.885 231.193 195.083C230.325 195.284 229.15 195.114 227.596 194.217L227.111 195.057L226.625 195.897C228.432 196.94 230.119 197.324 231.632 196.973C233.159 196.619 234.302 195.564 235.111 194.163L234.271 193.678ZM227.111 195.057L227.596 194.217L221.949 190.956L221.464 191.797L220.978 192.637L226.625 195.897L227.111 195.057ZM221.464 191.797L221.949 190.956C220.46 190.097 219.564 188.919 219.217 187.658C218.871 186.397 219.047 184.96 219.873 183.528L219.033 183.043L218.192 182.558C217.136 184.387 216.847 186.356 217.346 188.172C217.845 189.987 219.106 191.556 220.978 192.637L221.464 191.797ZM211.5 196.091L212.34 196.576C213.16 195.155 214.334 194.295 215.627 193.975C216.923 193.654 218.421 193.857 219.912 194.717L220.397 193.877L220.882 193.037C219.011 191.957 217.001 191.636 215.161 192.092C213.316 192.548 211.722 193.765 210.659 195.605L211.5 196.091ZM220.397 193.877L219.912 194.717L232.685 202.092L233.17 201.252L233.655 200.411L220.882 193.037L220.397 193.877ZM233.17 201.252L232.685 202.092C234.194 202.963 235.126 204.165 235.5 205.45C235.872 206.731 235.715 208.177 234.895 209.598L235.735 210.083L236.575 210.568C237.638 208.728 237.895 206.738 237.363 204.909C236.832 203.083 235.541 201.5 233.655 200.411L233.17 201.252ZM235.735 210.083L234.895 209.598C234.085 210.999 232.912 211.861 231.611 212.183C230.306 212.506 228.795 212.306 227.29 211.436L226.804 212.277L226.319 213.117C228.208 214.208 230.231 214.524 232.077 214.067C233.927 213.609 235.522 212.393 236.575 210.568L235.735 210.083ZM226.804 212.277L227.29 211.436L214.517 204.062L214.031 204.902L213.546 205.743L226.319 213.117L226.804 212.277ZM214.031 204.902L214.517 204.062C213.03 203.204 212.108 202.001 211.739 200.712C211.371 199.425 211.531 197.978 212.34 196.576L211.5 196.091L210.659 195.605C209.606 197.43 209.351 199.418 209.874 201.246C210.396 203.07 211.672 204.66 213.546 205.743L214.031 204.902ZM217.875 197.934L218.36 197.094C217.508 196.601 216.686 196.444 215.943 196.728C215.246 196.994 214.862 197.563 214.659 197.915L215.5 198.4L216.34 198.885C216.487 198.632 216.585 198.56 216.635 198.541C216.639 198.539 216.831 198.452 217.39 198.774L217.875 197.934ZM215.5 198.4L214.659 197.915C214.462 198.257 214.169 198.866 214.292 199.598C214.422 200.374 214.965 201.004 215.818 201.497L216.303 200.657L216.789 199.816C216.23 199.494 216.206 199.281 216.205 199.276C216.197 199.227 216.208 199.115 216.34 198.885L215.5 198.4ZM216.303 200.657L215.818 201.497L228.894 209.046L229.379 208.206L229.864 207.365L216.789 199.816L216.303 200.657ZM229.379 208.206L228.894 209.046C229.723 209.525 230.529 209.713 231.273 209.449C231.983 209.197 232.367 208.619 232.575 208.259L231.735 207.773L230.895 207.288C230.734 207.566 230.646 207.612 230.623 207.62C230.618 207.622 230.577 207.638 230.467 207.618C230.347 207.596 230.151 207.531 229.864 207.365L229.379 208.206ZM231.735 207.773L232.575 208.259C232.784 207.897 233.092 207.274 232.968 206.534C232.835 205.747 232.277 205.128 231.436 204.643L230.951 205.483L230.466 206.323C230.749 206.487 230.898 206.623 230.974 206.715C231.044 206.799 231.052 206.844 231.054 206.855C231.061 206.896 231.055 207.011 230.895 207.288L231.735 207.773ZM230.951 205.483L231.436 204.643L218.36 197.094L217.875 197.934L217.39 198.774L230.466 206.323L230.951 205.483Z" fill="#2F2F2F" fill-opacity="0.6" mask="url(#path-17-outside-3_23009_17418)"/>
<g filter="url(#filter3_d_23009_17418)">
<path d="M208.023 171.45C208.967 169.814 210.708 169.298 212.485 170.324L218.038 173.53L217.1 175.153L211.489 171.913C210.571 171.383 209.931 171.704 209.564 172.339C209.218 172.939 209.233 173.701 210.151 174.231L215.762 177.471L214.825 179.094L209.272 175.888C207.507 174.869 207.079 173.085 208.023 171.45ZM203.7 178.883C204.671 177.2 206.431 176.679 208.208 177.705L207.27 179.328C206.306 178.771 205.62 179.035 205.206 179.752C204.812 180.435 204.838 181.124 205.52 181.518C206.214 181.919 206.872 181.295 207.639 180.592C208.628 179.72 209.782 178.755 211.429 179.706C212.946 180.582 213.239 182.194 212.288 183.841C211.364 185.441 209.655 185.929 207.95 184.944L208.873 183.344C209.756 183.854 210.419 183.656 210.819 182.962C211.22 182.268 211.115 181.689 210.491 181.329C209.786 180.922 209.154 181.499 208.42 182.173C207.447 183.07 206.3 184.133 204.594 183.148C203.018 182.238 202.729 180.565 203.7 178.883ZM201.07 183.764L209.364 188.553L207.788 191.282C206.837 192.929 205.167 193.486 203.143 192.318L200.955 191.054C198.955 189.9 198.543 188.14 199.494 186.493L201.07 183.764ZM201.674 186.277L201.144 187.195C200.696 187.971 200.662 188.736 202.286 189.674L203.897 190.604C204.792 191.12 205.692 191.327 206.344 190.197L206.874 189.279L201.674 186.277ZM195.025 193.936C195.976 192.289 197.811 191.827 199.505 192.805L202.352 194.449C204.035 195.42 204.552 197.24 203.601 198.887C202.542 200.723 200.792 200.983 198.874 199.876L198.85 199.862L199.788 198.239L199.905 198.306C201.129 199.013 201.722 198.556 202.048 197.991C202.374 197.426 202.408 196.661 201.455 196.111L198.514 194.413C197.538 193.849 196.904 194.268 196.578 194.832C196.143 195.585 196.27 196.208 197.482 196.907L197.588 196.968L196.65 198.592L196.603 198.565C194.521 197.362 193.945 195.806 195.025 193.936Z" fill="white"/>
</g>
<mask id="path-20-outside-4_23009_17418" maskUnits="userSpaceOnUse" x="51.5819" y="83.114" width="49.8468" height="55.3372" fill="black">
<rect fill="white" x="51.5819" y="83.114" width="49.8468" height="55.3372"/>
<path d="M80.6346 131.251C78.7716 134.478 75.099 135.406 71.7377 133.465L74.1441 129.297C75.5895 130.131 76.3047 129.513 76.6346 128.942C76.984 128.337 77.1614 127.409 75.8169 126.632L70.1698 123.372C68.9262 122.654 68.2885 123.137 67.8616 123.877C67.2988 124.852 68.0175 125.625 68.5979 126.095L66.0688 129.699L54.5388 121.025L59.3905 112.622L63.3905 114.931L60.4018 120.108L65.0027 123.705C64.7404 123.151 64.6399 121.927 65.3968 120.616C66.8328 118.129 69.1955 117.297 72.5569 119.238L78.2039 122.498C81.5652 124.439 82.5171 127.991 80.6346 131.251ZM88.1676 118.204C86.2851 121.464 82.632 122.358 79.2706 120.417L66.4976 113.043C63.1026 111.083 62.05 107.472 63.9324 104.212C65.7954 100.985 69.468 100.058 72.863 102.018L85.636 109.392C88.9973 111.333 90.0306 114.977 88.1676 118.204ZM81.7921 116.361C83.2039 117.176 83.8183 116.5 84.1676 115.895C84.4975 115.323 84.7758 114.453 83.364 113.638L70.2885 106.089C68.8767 105.274 68.3011 105.883 67.9324 106.521C67.5637 107.16 67.3048 107.996 68.7165 108.811L81.7921 116.361ZM95.8999 104.811C94.0175 108.072 90.3643 108.965 87.003 107.025L74.2299 99.6501C70.835 97.6901 69.7823 94.0795 71.6647 90.819C73.5278 87.5921 77.2004 86.6649 80.5953 88.625L93.3683 95.9995C96.7297 97.9402 97.763 101.584 95.8999 104.811ZM89.5244 102.968C90.9362 103.783 91.5506 103.107 91.8999 102.502C92.2298 101.93 92.5081 101.06 91.0964 100.245L78.0208 92.696C76.6091 91.8809 76.0334 92.4898 75.6647 93.1284C75.296 93.7671 75.0371 94.6036 76.4489 95.4187L89.5244 102.968Z"/>
</mask>
<path d="M80.6346 131.251C78.7716 134.478 75.099 135.406 71.7377 133.465L74.1441 129.297C75.5895 130.131 76.3047 129.513 76.6346 128.942C76.984 128.337 77.1614 127.409 75.8169 126.632L70.1698 123.372C68.9262 122.654 68.2885 123.137 67.8616 123.877C67.2988 124.852 68.0175 125.625 68.5979 126.095L66.0688 129.699L54.5388 121.025L59.3905 112.622L63.3905 114.931L60.4018 120.108L65.0027 123.705C64.7404 123.151 64.6399 121.927 65.3968 120.616C66.8328 118.129 69.1955 117.297 72.5569 119.238L78.2039 122.498C81.5652 124.439 82.5171 127.991 80.6346 131.251ZM88.1676 118.204C86.2851 121.464 82.632 122.358 79.2706 120.417L66.4976 113.043C63.1026 111.083 62.05 107.472 63.9324 104.212C65.7954 100.985 69.468 100.058 72.863 102.018L85.636 109.392C88.9973 111.333 90.0306 114.977 88.1676 118.204ZM81.7921 116.361C83.2039 117.176 83.8183 116.5 84.1676 115.895C84.4975 115.323 84.7758 114.453 83.364 113.638L70.2885 106.089C68.8767 105.274 68.3011 105.883 67.9324 106.521C67.5637 107.16 67.3048 107.996 68.7165 108.811L81.7921 116.361ZM95.8999 104.811C94.0175 108.072 90.3643 108.965 87.003 107.025L74.2299 99.6501C70.835 97.6901 69.7823 94.0795 71.6647 90.819C73.5278 87.5921 77.2004 86.6649 80.5953 88.625L93.3683 95.9995C96.7297 97.9402 97.763 101.584 95.8999 104.811ZM89.5244 102.968C90.9362 103.783 91.5506 103.107 91.8999 102.502C92.2298 101.93 92.5081 101.06 91.0964 100.245L78.0208 92.696C76.6091 91.8809 76.0334 92.4898 75.6647 93.1284C75.296 93.7671 75.0371 94.6036 76.4489 95.4187L89.5244 102.968Z" fill="url(#paint4_linear_23009_17418)"/>
<path d="M71.7377 133.465L70.8973 132.98L70.4122 133.82L71.2525 134.305L71.7377 133.465ZM74.1441 129.297L74.6293 128.457L73.7889 127.971L73.3038 128.812L74.1441 129.297ZM68.5979 126.095L69.3922 126.652L69.9127 125.91L69.2082 125.34L68.5979 126.095ZM66.0688 129.699L65.4855 130.474L66.287 131.077L66.8631 130.256L66.0688 129.699ZM54.5388 121.025L53.6985 120.54L53.2689 121.284L53.9555 121.801L54.5388 121.025ZM59.3905 112.622L59.8756 111.782L59.0353 111.297L58.5501 112.137L59.3905 112.622ZM63.3905 114.931L64.2308 115.417L64.716 114.576L63.8756 114.091L63.3905 114.931ZM60.4018 120.108L59.5615 119.623L59.1399 120.353L59.8041 120.872L60.4018 120.108ZM65.0027 123.705L64.405 124.47L65.8799 123.291L65.0027 123.705ZM80.6346 131.251L79.7943 130.766C78.9849 132.168 77.8112 133.03 76.5128 133.355C75.2115 133.68 73.7097 133.483 72.2228 132.625L71.7377 133.465L71.2525 134.305C73.127 135.387 75.1421 135.697 76.9832 135.237C78.8272 134.777 80.4213 133.562 81.475 131.737L80.6346 131.251ZM71.7377 133.465L72.578 133.95L74.9844 129.782L74.1441 129.297L73.3038 128.812L70.8973 132.98L71.7377 133.465ZM74.1441 129.297L73.6589 130.137C74.5263 130.638 75.3487 130.8 76.0894 130.575C76.8142 130.355 77.2425 129.83 77.475 129.427L76.6346 128.942L75.7943 128.457C75.6969 128.626 75.6026 128.695 75.5259 128.718C75.4652 128.737 75.2073 128.79 74.6293 128.457L74.1441 129.297ZM76.6346 128.942L77.475 129.427C77.711 129.019 77.9564 128.389 77.8128 127.663C77.6629 126.905 77.1369 126.274 76.302 125.792L75.8169 126.632L75.3317 127.473C75.8414 127.767 75.8989 127.988 75.9091 128.04C75.9256 128.123 75.9076 128.261 75.7943 128.457L76.6346 128.942ZM75.8169 126.632L76.302 125.792L70.655 122.532L70.1698 123.372L69.6847 124.212L75.3317 127.473L75.8169 126.632ZM70.1698 123.372L70.655 122.532C69.9003 122.096 69.1317 121.913 68.4008 122.158C67.6987 122.394 67.2785 122.946 67.0212 123.392L67.8616 123.877L68.7019 124.362C68.8716 124.068 68.9837 124.009 69.018 123.998C69.0237 123.996 69.1957 123.93 69.6847 124.212L70.1698 123.372ZM67.8616 123.877L67.0212 123.392C66.5623 124.187 66.6207 124.967 66.9284 125.6C67.2057 126.17 67.667 126.59 67.9876 126.849L68.5979 126.095L69.2082 125.34C68.9483 125.13 68.7601 124.929 68.6736 124.751C68.6363 124.674 68.6273 124.62 68.6278 124.581C68.6283 124.545 68.6367 124.475 68.7019 124.362L67.8616 123.877ZM68.5979 126.095L67.8036 125.537L65.2745 129.142L66.0688 129.699L66.8631 130.256L69.3922 126.652L68.5979 126.095ZM66.0688 129.699L66.6521 128.924L55.1221 120.25L54.5388 121.025L53.9555 121.801L65.4855 130.474L66.0688 129.699ZM54.5388 121.025L55.3792 121.511L60.2308 113.107L59.3905 112.622L58.5501 112.137L53.6985 120.54L54.5388 121.025ZM59.3905 112.622L58.9053 113.462L62.9053 115.772L63.3905 114.931L63.8756 114.091L59.8756 111.782L59.3905 112.622ZM63.3905 114.931L62.5501 114.446L59.5615 119.623L60.4018 120.108L61.2422 120.593L64.2308 115.417L63.3905 114.931ZM60.4018 120.108L59.8041 120.872L64.405 124.47L65.0027 123.705L65.6004 122.941L60.9995 119.343L60.4018 120.108ZM65.0027 123.705L65.8799 123.291C65.7701 123.058 65.6192 122.172 66.2371 121.102L65.3968 120.616L64.5564 120.131C63.6606 121.683 63.7106 123.243 64.1255 124.12L65.0027 123.705ZM65.3968 120.616L66.2371 121.102C66.8645 120.015 67.6201 119.41 68.4743 119.212C69.3423 119.01 70.5171 119.18 72.0717 120.078L72.5569 119.238L73.042 118.397C71.2353 117.354 69.548 116.97 68.0354 117.321C66.5089 117.676 65.3651 118.73 64.5564 120.131L65.3968 120.616ZM72.5569 119.238L72.0717 120.078L77.7187 123.338L78.2039 122.498L78.6891 121.658L73.042 118.397L72.5569 119.238ZM78.2039 122.498L77.7187 123.338C79.2077 124.198 80.1033 125.376 80.45 126.637C80.7965 127.897 80.6207 129.335 79.7943 130.766L80.6346 131.251L81.475 131.737C82.531 129.908 82.8205 127.939 82.3213 126.123C81.8224 124.308 80.5615 122.739 78.6891 121.658L78.2039 122.498ZM88.1676 118.204L87.3272 117.719C86.5072 119.139 85.3331 119.999 84.0405 120.319C82.7439 120.64 81.2461 120.438 79.7558 119.577L79.2706 120.417L78.7855 121.258C80.6565 122.338 82.6659 122.659 84.5069 122.203C86.3518 121.746 87.9455 120.529 89.0079 118.689L88.1676 118.204ZM79.2706 120.417L79.7558 119.577L66.9828 112.203L66.4976 113.043L66.0124 113.883L78.7855 121.258L79.2706 120.417ZM66.4976 113.043L66.9828 112.203C65.4735 111.331 64.5414 110.129 64.1677 108.844C63.7953 107.563 63.9527 106.117 64.7727 104.697L63.9324 104.212L63.0921 103.727C62.0296 105.567 61.7722 107.556 62.3042 109.386C62.835 111.211 64.1267 112.795 66.0124 113.883L66.4976 113.043ZM63.9324 104.212L64.7727 104.697C65.582 103.295 66.7552 102.434 68.0565 102.112C69.361 101.788 70.872 101.989 72.3778 102.858L72.863 102.018L73.3481 101.177C71.459 100.087 69.4363 99.7705 67.59 100.228C65.7405 100.686 64.1459 101.901 63.0921 103.727L63.9324 104.212ZM72.863 102.018L72.3778 102.858L85.1508 110.233L85.636 109.392L86.1212 108.552L73.3481 101.177L72.863 102.018ZM85.636 109.392L85.1508 110.233C86.6377 111.091 87.559 112.293 87.9281 113.583C88.2963 114.869 88.1366 116.317 87.3272 117.719L88.1676 118.204L89.0079 118.689C90.0616 116.864 90.3168 114.876 89.7938 113.049C89.2717 111.224 87.9957 109.634 86.1212 108.552L85.636 109.392ZM81.7921 116.361L81.3069 117.201C82.1598 117.693 82.9809 117.851 83.7245 117.567C84.4215 117.3 84.805 116.731 85.0079 116.38L84.1676 115.895L83.3273 115.409C83.1809 115.663 83.0825 115.734 83.032 115.754C83.0281 115.755 82.8362 115.843 82.2773 115.52L81.7921 116.361ZM84.1676 115.895L85.0079 116.38C85.2053 116.038 85.4989 115.429 85.3759 114.697C85.2454 113.92 84.7023 113.29 83.8492 112.798L83.364 113.638L82.8789 114.478C83.4375 114.801 83.4611 115.013 83.462 115.018C83.4704 115.068 83.4599 115.18 83.3273 115.409L84.1676 115.895ZM83.364 113.638L83.8492 112.798L70.7736 105.248L70.2885 106.089L69.8033 106.929L82.8789 114.478L83.364 113.638ZM70.2885 106.089L70.7736 105.248C69.9448 104.77 69.1387 104.581 68.3945 104.845C67.6848 105.098 67.3002 105.676 67.0921 106.036L67.9324 106.521L68.7727 107.006C68.9333 106.728 69.0209 106.682 69.0441 106.674C69.0489 106.672 69.0903 106.657 69.2009 106.677C69.3206 106.699 69.5162 106.763 69.8033 106.929L70.2885 106.089ZM67.9324 106.521L67.0921 106.036C66.8835 106.397 66.5754 107.02 66.6999 107.761C66.832 108.547 67.3907 109.166 68.2314 109.652L68.7165 108.811L69.2017 107.971C68.9182 107.807 68.769 107.671 68.6933 107.58C68.6237 107.496 68.6156 107.451 68.6137 107.439C68.6068 107.399 68.6125 107.284 68.7727 107.006L67.9324 106.521ZM68.7165 108.811L68.2314 109.652L81.3069 117.201L81.7921 116.361L82.2773 115.52L69.2017 107.971L68.7165 108.811ZM95.8999 104.811L95.0596 104.326C94.2395 105.746 93.0654 106.606 91.7728 106.926C90.4763 107.247 88.9784 107.045 87.4881 106.184L87.003 107.025L86.5178 107.865C88.3888 108.945 90.3983 109.266 92.2392 108.81C94.0841 108.354 95.6779 107.136 96.7402 105.296L95.8999 104.811ZM87.003 107.025L87.4881 106.184L74.7151 98.8098L74.2299 99.6501L73.7448 100.49L86.5178 107.865L87.003 107.025ZM74.2299 99.6501L74.7151 98.8098C73.2059 97.9384 72.2737 96.7364 71.9 95.4513C71.5276 94.1704 71.6851 92.7244 72.5051 91.3042L71.6647 90.819L70.8244 90.3338C69.7619 92.1741 69.5046 94.1636 70.0366 95.9932C70.5673 97.8185 71.859 99.4017 73.7448 100.49L74.2299 99.6501ZM71.6647 90.819L72.5051 91.3042C73.3143 89.9025 74.4875 89.041 75.7888 88.7188C77.0933 88.3957 78.6043 88.5959 80.1101 89.4653L80.5953 88.625L81.0805 87.7846C79.1913 86.6939 77.1686 86.3778 75.3223 86.835C73.4728 87.2931 71.8782 88.5086 70.8244 90.3338L71.6647 90.819ZM80.5953 88.625L80.1101 89.4653L92.8832 96.8398L93.3683 95.9995L93.8535 95.1592L81.0805 87.7846L80.5953 88.625ZM93.3683 95.9995L92.8832 96.8398C94.37 97.6983 95.2913 98.9005 95.6604 100.19C96.0286 101.477 95.8689 102.924 95.0596 104.326L95.8999 104.811L96.7402 105.296C97.7939 103.471 98.0491 101.483 97.5261 99.656C97.004 97.8316 95.728 96.2414 93.8535 95.1592L93.3683 95.9995ZM89.5244 102.968L89.0393 103.808C89.8921 104.301 90.7133 104.458 91.4569 104.174C92.1538 103.908 92.5373 103.339 92.7403 102.987L91.8999 102.502L91.0596 102.017C90.9132 102.27 90.8148 102.342 90.7643 102.361C90.7605 102.362 90.5685 102.45 90.0096 102.128L89.5244 102.968ZM91.8999 102.502L92.7403 102.987C92.9376 102.645 93.2312 102.036 93.1082 101.304C92.9778 100.528 92.4347 99.8974 91.5815 99.4048L91.0964 100.245L90.6112 101.086C91.1698 101.408 91.1935 101.62 91.1944 101.626C91.2027 101.675 91.1922 101.787 91.0596 102.017L91.8999 102.502ZM91.0964 100.245L91.5815 99.4048L78.506 91.8557L78.0208 92.696L77.5356 93.5363L90.6112 101.086L91.0964 100.245ZM78.0208 92.696L78.506 91.8557C77.6771 91.3771 76.8711 91.1884 76.1269 91.4527C75.4171 91.7048 75.0325 92.2827 74.8244 92.6432L75.6647 93.1284L76.5051 93.6136C76.6656 93.3354 76.7532 93.2896 76.7764 93.2814C76.7813 93.2797 76.8226 93.2638 76.9332 93.2842C77.053 93.3062 77.2485 93.3705 77.5356 93.5363L78.0208 92.696ZM75.6647 93.1284L74.8244 92.6432C74.6159 93.0044 74.3077 93.6273 74.4322 94.3681C74.5643 95.1545 75.123 95.7736 75.9637 96.259L76.4489 95.4187L76.934 94.5783C76.6505 94.4146 76.5013 94.2783 76.4256 94.1871C76.356 94.1032 76.3479 94.0578 76.346 94.0466C76.3392 94.0057 76.3448 93.8911 76.5051 93.6136L75.6647 93.1284ZM76.4489 95.4187L75.9637 96.259L89.0393 103.808L89.5244 102.968L90.0096 102.128L76.934 94.5783L76.4489 95.4187Z" fill="#2F2F2F" fill-opacity="0.6" mask="url(#path-20-outside-4_23009_17418)"/>
<g filter="url(#filter4_d_23009_17418)">
<path d="M95.5106 136.149C94.5664 137.784 92.8252 138.301 91.0488 137.275L85.4959 134.069L86.4332 132.445L92.0449 135.685C92.9626 136.215 93.6026 135.895 93.9694 135.259C94.3158 134.659 94.3007 133.898 93.383 133.368L87.7713 130.128L88.7086 128.504L94.2615 131.71C96.0262 132.729 96.4547 134.514 95.5106 136.149ZM99.8335 128.716C98.8622 130.398 97.1025 130.919 95.326 129.894L96.2634 128.27C97.2281 128.827 97.9133 128.564 98.3277 127.846C98.7216 127.164 98.696 126.475 98.0137 126.081C97.3196 125.68 96.6613 126.304 95.8949 127.007C94.9053 127.878 93.7519 128.844 92.1048 127.893C90.5872 127.017 90.2944 125.404 91.2453 123.757C92.1691 122.157 93.8782 121.67 95.584 122.655L94.6603 124.255C93.7779 123.745 93.1149 123.943 92.7141 124.637C92.3134 125.331 92.4186 125.909 93.0421 126.269C93.748 126.677 94.3791 126.1 95.1134 125.426C96.0862 124.529 97.2334 123.466 98.9393 124.45C100.516 125.361 100.805 127.033 99.8335 128.716ZM102.463 123.835L94.1693 119.046L95.7452 116.317C96.6961 114.67 98.3667 114.113 100.39 115.281L102.578 116.544C104.578 117.699 104.99 119.458 104.039 121.105L102.463 123.835ZM101.86 121.321L102.389 120.404C102.838 119.627 102.871 118.862 101.248 117.925L99.6361 116.995C98.742 116.478 97.8415 116.272 97.1894 117.402L96.6596 118.319L101.86 121.321ZM108.509 113.663C107.558 115.31 105.722 115.772 104.028 114.794L101.181 113.15C99.4989 112.179 98.9813 110.358 99.9322 108.711C100.992 106.876 102.742 106.616 104.66 107.723L104.683 107.737L103.746 109.36L103.628 109.292C102.405 108.586 101.811 109.043 101.485 109.608C101.159 110.173 101.125 110.937 102.078 111.488L105.02 113.186C105.996 113.749 106.63 113.331 106.956 112.766C107.39 112.013 107.263 111.391 106.052 110.691L105.946 110.63L106.883 109.007L106.93 109.034C109.013 110.236 109.589 111.792 108.509 113.663Z" fill="white"/>
</g>
<mask id="path-23-outside-5_23009_17418" maskUnits="userSpaceOnUse" x="201.228" y="81.5949" width="50.3468" height="56.2032" fill="black">
<rect fill="white" x="201.228" y="81.5949" width="50.3468" height="56.2032"/>
<path d="M206.814 103.391C204.932 100.131 205.825 96.4778 209.288 94.4789L211.655 98.5797C210.277 99.3754 210.493 100.371 210.862 101.01C211.192 101.581 211.859 102.271 213.238 101.476L216.532 99.5738C217.943 98.7587 217.704 97.9558 217.335 97.3172L216.21 95.3676L219.773 93.3105L220.821 95.1256C221.189 95.7643 221.804 96.4403 223.216 95.6253L226.241 93.8787C227.518 93.1412 227.432 92.2943 227.044 91.622C226.676 90.9834 225.966 90.4522 224.688 91.1896L222.34 87.1224C225.567 85.2594 229.186 86.1724 231.049 89.3993C233.068 92.8951 231.879 96.2703 228.484 98.2304L226.871 99.1619C224.787 100.365 222.599 101.001 220.812 99.6125C221.12 101.855 220.014 103.121 217.358 104.654L215.711 105.605C212.35 107.546 208.833 106.887 206.814 103.391ZM214.498 116.699C212.615 113.439 213.668 109.828 217.029 107.887L229.802 100.513C233.197 98.5529 236.85 99.4465 238.733 102.707C240.596 105.934 239.562 109.578 236.167 111.538L223.394 118.913C220.033 120.853 216.361 119.926 214.498 116.699ZM219.282 112.1C217.87 112.915 218.148 113.785 218.497 114.39C218.827 114.961 219.442 115.637 220.854 114.822L233.929 107.273C235.341 106.458 235.101 105.655 234.733 105.016C234.364 104.378 233.769 103.735 232.357 104.55L219.282 112.1ZM222.23 130.092C220.347 126.831 221.4 123.221 224.761 121.28L237.534 113.906C240.929 111.946 244.583 112.839 246.465 116.1C248.328 119.327 247.295 122.971 243.9 124.931L231.127 132.305C227.765 134.246 224.093 133.319 222.23 130.092ZM227.014 125.492C225.602 126.307 225.88 127.178 226.23 127.783C226.56 128.354 227.174 129.03 228.586 128.215L241.661 120.666C243.073 119.851 242.834 119.048 242.465 118.409C242.096 117.771 241.501 117.128 240.09 117.943L227.014 125.492Z"/>
</mask>
<path d="M206.814 103.391C204.932 100.131 205.825 96.4778 209.288 94.4789L211.655 98.5797C210.277 99.3754 210.493 100.371 210.862 101.01C211.192 101.581 211.859 102.271 213.238 101.476L216.532 99.5738C217.943 98.7587 217.704 97.9558 217.335 97.3172L216.21 95.3676L219.773 93.3105L220.821 95.1256C221.189 95.7643 221.804 96.4403 223.216 95.6253L226.241 93.8787C227.518 93.1412 227.432 92.2943 227.044 91.622C226.676 90.9834 225.966 90.4522 224.688 91.1896L222.34 87.1224C225.567 85.2594 229.186 86.1724 231.049 89.3993C233.068 92.8951 231.879 96.2703 228.484 98.2304L226.871 99.1619C224.787 100.365 222.599 101.001 220.812 99.6125C221.12 101.855 220.014 103.121 217.358 104.654L215.711 105.605C212.35 107.546 208.833 106.887 206.814 103.391ZM214.498 116.699C212.615 113.439 213.668 109.828 217.029 107.887L229.802 100.513C233.197 98.5529 236.85 99.4465 238.733 102.707C240.596 105.934 239.562 109.578 236.167 111.538L223.394 118.913C220.033 120.853 216.361 119.926 214.498 116.699ZM219.282 112.1C217.87 112.915 218.148 113.785 218.497 114.39C218.827 114.961 219.442 115.637 220.854 114.822L233.929 107.273C235.341 106.458 235.101 105.655 234.733 105.016C234.364 104.378 233.769 103.735 232.357 104.55L219.282 112.1ZM222.23 130.092C220.347 126.831 221.4 123.221 224.761 121.28L237.534 113.906C240.929 111.946 244.583 112.839 246.465 116.1C248.328 119.327 247.295 122.971 243.9 124.931L231.127 132.305C227.765 134.246 224.093 133.319 222.23 130.092ZM227.014 125.492C225.602 126.307 225.88 127.178 226.23 127.783C226.56 128.354 227.174 129.03 228.586 128.215L241.661 120.666C243.073 119.851 242.834 119.048 242.465 118.409C242.096 117.771 241.501 117.128 240.09 117.943L227.014 125.492Z" fill="url(#paint5_linear_23009_17418)"/>
<path d="M209.288 94.4789L210.128 93.9937L209.643 93.1534L208.802 93.6386L209.288 94.4789ZM211.655 98.5797L212.14 99.4201L212.981 98.9349L212.496 98.0946L211.655 98.5797ZM216.21 95.3676L215.724 94.5273L214.884 95.0124L215.369 95.8528L216.21 95.3676ZM219.773 93.3105L220.613 92.8253L220.128 91.985L219.288 92.4702L219.773 93.3105ZM224.688 91.1896L223.848 91.6748L224.333 92.5151L225.173 92.0299L224.688 91.1896ZM222.34 87.1224L221.855 86.2821L221.014 86.7672L221.5 87.6076L222.34 87.1224ZM220.812 99.6125L221.407 98.8462L219.526 97.3853L219.85 99.7448L220.812 99.6125ZM206.814 103.391L207.655 102.906C206.827 101.474 206.637 100.009 206.984 98.7132C207.331 97.4197 208.238 96.2056 209.773 95.3192L209.288 94.4789L208.802 93.6386C206.876 94.7511 205.605 96.3631 205.109 98.2109C204.615 100.057 204.919 102.049 205.974 103.877L206.814 103.391ZM209.288 94.4789L208.447 94.9641L210.815 99.0649L211.655 98.5797L212.496 98.0946L210.128 93.9937L209.288 94.4789ZM211.655 98.5797L211.17 97.7394C210.303 98.2402 209.779 98.9057 209.647 99.6924C209.522 100.434 209.781 101.078 210.022 101.495L210.862 101.01L211.702 100.524C211.574 100.302 211.541 100.13 211.56 100.015C211.572 99.9451 211.63 99.7149 212.14 99.4201L211.655 98.5797ZM210.862 101.01L210.022 101.495C210.23 101.856 210.624 102.401 211.312 102.662C212.046 102.941 212.867 102.81 213.723 102.316L213.238 101.476L212.752 100.635C212.23 100.937 212.028 100.858 212.001 100.848C211.929 100.821 211.824 100.735 211.702 100.524L210.862 101.01ZM213.238 101.476L213.723 102.316L217.017 100.414L216.532 99.5738L216.047 98.7335L212.752 100.635L213.238 101.476ZM216.532 99.5738L217.017 100.414C217.846 99.9356 218.412 99.3319 218.555 98.5553C218.692 97.8145 218.384 97.1925 218.176 96.832L217.335 97.3172L216.495 97.8023C216.655 98.0805 216.651 98.1793 216.647 98.2034C216.646 98.2085 216.639 98.2523 216.566 98.3378C216.487 98.4305 216.334 98.5677 216.047 98.7335L216.532 99.5738ZM217.335 97.3172L218.176 96.832L217.05 94.8824L216.21 95.3676L215.369 95.8528L216.495 97.8023L217.335 97.3172ZM216.21 95.3676L216.695 96.2079L220.258 94.1508L219.773 93.3105L219.288 92.4702L215.724 94.5273L216.21 95.3676ZM219.773 93.3105L218.932 93.7957L219.98 95.6108L220.821 95.1256L221.661 94.6405L220.613 92.8253L219.773 93.3105ZM220.821 95.1256L219.98 95.6108C220.189 95.9725 220.576 96.5516 221.274 96.8244C222.023 97.1172 222.848 96.9578 223.701 96.4656L223.216 95.6253L222.73 94.7849C222.171 95.1078 221.983 95.0179 221.98 95.0168C221.926 94.9957 221.821 94.9174 221.661 94.6405L220.821 95.1256ZM223.216 95.6253L223.701 96.4656L226.726 94.719L226.241 93.8787L225.756 93.0383L222.73 94.7849L223.216 95.6253ZM226.241 93.8787L226.726 94.719C227.505 94.2692 228.042 93.6831 228.212 92.9446C228.38 92.2222 228.142 91.5829 227.885 91.1369L227.044 91.622L226.204 92.1072C226.335 92.3335 226.334 92.4537 226.322 92.5072C226.313 92.5446 226.254 92.7507 225.756 93.0383L226.241 93.8787ZM227.044 91.622L227.885 91.1369C227.632 90.7001 227.198 90.1842 226.498 89.9641C225.777 89.7374 224.994 89.8924 224.203 90.3493L224.688 91.1896L225.173 92.0299C225.659 91.7494 225.871 91.8013 225.916 91.8155C225.982 91.8362 226.087 91.9053 226.204 92.1072L227.044 91.622ZM224.688 91.1896L225.529 90.7044L223.18 86.6372L222.34 87.1224L221.5 87.6076L223.848 91.6748L224.688 91.1896ZM222.34 87.1224L222.825 87.9627C224.239 87.1464 225.691 86.9623 226.963 87.2915C228.234 87.6202 229.398 88.479 230.209 89.8844L231.049 89.3993L231.89 88.9141C230.838 87.0926 229.261 85.8815 227.449 85.4127C225.639 84.9445 223.668 85.2353 221.855 86.2821L222.34 87.1224ZM231.049 89.3993L230.209 89.8844C231.104 91.4351 231.248 92.8749 230.869 94.1055C230.487 95.3484 229.533 96.5045 227.999 97.3901L228.484 98.2304L228.969 99.0707C230.831 97.9962 232.168 96.4847 232.724 94.6759C233.284 92.8549 233.013 90.8593 231.89 88.9141L231.049 89.3993ZM228.484 98.2304L227.999 97.3901L226.386 98.3216L226.871 99.1619L227.356 100.002L228.969 99.0707L228.484 98.2304ZM226.871 99.1619L226.386 98.3216C224.336 99.5048 222.675 99.8312 221.407 98.8462L220.812 99.6125L220.217 100.379C222.523 102.17 225.237 101.225 227.356 100.002L226.871 99.1619ZM220.812 99.6125L219.85 99.7448C219.976 100.655 219.813 101.273 219.41 101.831C218.966 102.445 218.177 103.061 216.873 103.814L217.358 104.654L217.843 105.494C219.195 104.714 220.287 103.93 220.983 102.968C221.72 101.949 221.956 100.812 221.773 99.4803L220.812 99.6125ZM217.358 104.654L216.873 103.814L215.226 104.765L215.711 105.605L216.196 106.445L217.843 105.494L217.358 104.654ZM215.711 105.605L215.226 104.765C213.711 105.639 212.242 105.884 210.978 105.591C209.726 105.302 208.55 104.457 207.655 102.906L206.814 103.391L205.974 103.877C207.097 105.822 208.689 107.054 210.54 107.482C212.38 107.908 214.35 107.511 216.196 106.445L215.711 105.605ZM214.498 116.699L215.338 116.214C214.518 114.794 214.36 113.347 214.729 112.067C215.099 110.784 216.024 109.588 217.514 108.728L217.029 107.887L216.544 107.047C214.673 108.127 213.39 109.707 212.865 111.529C212.338 113.356 212.595 115.344 213.657 117.184L214.498 116.699ZM217.029 107.887L217.514 108.728L230.287 101.353L229.802 100.513L229.317 99.6726L216.544 107.047L217.029 107.887ZM229.802 100.513L230.287 101.353C231.797 100.482 233.304 100.276 234.603 100.595C235.899 100.913 237.072 101.772 237.892 103.192L238.733 102.707L239.573 102.222C238.511 100.382 236.916 99.1639 235.066 98.7099C233.22 98.2569 231.203 98.5839 229.317 99.6726L229.802 100.513ZM238.733 102.707L237.892 103.192C238.702 104.594 238.861 106.041 238.49 107.329C238.117 108.62 237.188 109.828 235.682 110.698L236.167 111.538L236.653 112.378C238.542 111.288 239.827 109.694 240.354 107.867C240.882 106.036 240.627 104.047 239.573 102.222L238.733 102.707ZM236.167 111.538L235.682 110.698L222.909 118.072L223.394 118.913L223.88 119.753L236.653 112.378L236.167 111.538ZM223.394 118.913L222.909 118.072C221.422 118.931 219.921 119.127 218.619 118.802C217.321 118.478 216.147 117.616 215.338 116.214L214.498 116.699L213.657 117.184C214.711 119.009 216.305 120.224 218.149 120.685C219.99 121.145 222.005 120.835 223.88 119.753L223.394 118.913ZM219.282 112.1L218.796 111.259C217.944 111.752 217.397 112.384 217.271 113.17C217.153 113.907 217.454 114.523 217.657 114.875L218.497 114.39L219.338 113.905C219.191 113.651 219.179 113.53 219.187 113.477C219.188 113.473 219.208 113.263 219.767 112.94L219.282 112.1ZM218.497 114.39L217.657 114.875C217.854 115.217 218.235 115.775 218.931 116.035C219.668 116.31 220.486 116.155 221.339 115.663L220.854 114.822L220.368 113.982C219.81 114.304 219.614 114.219 219.609 114.217C219.562 114.199 219.47 114.134 219.338 113.905L218.497 114.39ZM220.854 114.822L221.339 115.663L234.414 108.113L233.929 107.273L233.444 106.433L220.368 113.982L220.854 114.822ZM233.929 107.273L234.414 108.113C235.243 107.635 235.81 107.031 235.953 106.254C236.089 105.514 235.781 104.892 235.573 104.531L234.733 105.016L233.892 105.502C234.053 105.78 234.049 105.878 234.044 105.903C234.043 105.908 234.036 105.951 233.964 106.037C233.885 106.13 233.731 106.267 233.444 106.433L233.929 107.273ZM234.733 105.016L235.573 104.531C235.365 104.17 234.979 103.592 234.275 103.329C233.528 103.05 232.713 103.225 231.872 103.71L232.357 104.55L232.842 105.391C233.126 105.227 233.319 105.166 233.435 105.146C233.543 105.128 233.586 105.143 233.597 105.147C233.636 105.162 233.732 105.224 233.892 105.502L234.733 105.016ZM232.357 104.55L231.872 103.71L218.796 111.259L219.282 112.1L219.767 112.94L232.842 105.391L232.357 104.55ZM222.23 130.092L223.07 129.607C222.25 128.186 222.092 126.74 222.462 125.46C222.832 124.177 223.756 122.981 225.247 122.121L224.761 121.28L224.276 120.44C222.405 121.52 221.123 123.1 220.597 124.922C220.07 126.748 220.327 128.737 221.39 130.577L222.23 130.092ZM224.761 121.28L225.247 122.121L238.02 114.746L237.534 113.906L237.049 113.065L224.276 120.44L224.761 121.28ZM237.534 113.906L238.02 114.746C239.529 113.875 241.036 113.668 242.336 113.987C243.631 114.305 244.805 115.165 245.625 116.585L246.465 116.1L247.305 115.615C246.243 113.774 244.649 112.557 242.798 112.103C240.952 111.65 238.935 111.977 237.049 113.065L237.534 113.906ZM246.465 116.1L245.625 116.585C246.434 117.987 246.593 119.433 246.222 120.721C245.849 122.013 244.92 123.221 243.415 124.091L243.9 124.931L244.385 125.771C246.274 124.681 247.559 123.087 248.086 121.259C248.615 119.429 248.359 117.44 247.305 115.615L246.465 116.1ZM243.9 124.931L243.415 124.091L230.642 131.465L231.127 132.305L231.612 133.146L244.385 125.771L243.9 124.931ZM231.127 132.305L230.642 131.465C229.155 132.324 227.653 132.52 226.352 132.195C225.053 131.871 223.88 131.009 223.07 129.607L222.23 130.092L221.39 130.577C222.443 132.402 224.037 133.617 225.881 134.078C227.722 134.538 229.737 134.228 231.612 133.146L231.127 132.305ZM227.014 125.492L226.529 124.652C225.676 125.144 225.129 125.777 225.003 126.563C224.885 127.3 225.187 127.916 225.389 128.268L226.23 127.783L227.07 127.297C226.924 127.044 226.911 126.923 226.92 126.87C226.92 126.865 226.94 126.655 227.499 126.333L227.014 125.492ZM226.23 127.783L225.389 128.268C225.587 128.61 225.967 129.168 226.663 129.428C227.401 129.703 228.218 129.548 229.071 129.055L228.586 128.215L228.101 127.375C227.542 127.697 227.346 127.611 227.341 127.61C227.294 127.592 227.203 127.527 227.07 127.297L226.23 127.783ZM228.586 128.215L229.071 129.055L242.147 121.506L241.661 120.666L241.176 119.825L228.101 127.375L228.586 128.215ZM241.661 120.666L242.147 121.506C242.975 121.028 243.542 120.424 243.685 119.647C243.822 118.907 243.514 118.285 243.305 117.924L242.465 118.409L241.625 118.894C241.785 119.172 241.781 119.271 241.777 119.295C241.776 119.3 241.769 119.344 241.696 119.43C241.617 119.523 241.463 119.66 241.176 119.825L241.661 120.666ZM242.465 118.409L243.305 117.924C243.097 117.563 242.711 116.985 242.008 116.722C241.261 116.443 240.445 116.617 239.604 117.103L240.09 117.943L240.575 118.783C240.858 118.62 241.051 118.559 241.168 118.539C241.275 118.52 241.319 118.536 241.329 118.54C241.368 118.555 241.464 118.617 241.625 118.894L242.465 118.409ZM240.09 117.943L239.604 117.103L226.529 124.652L227.014 125.492L227.499 126.333L240.575 118.783L240.09 117.943Z" fill="#2F2F2F" fill-opacity="0.6" mask="url(#path-23-outside-5_23009_17418)"/>
<g filter="url(#filter5_d_23009_17418)">
<path d="M195.181 113.906C194.237 112.27 194.661 110.504 196.437 109.479L201.99 106.273L202.927 107.896L197.316 111.136C196.398 111.666 196.356 112.381 196.723 113.016C197.069 113.616 197.736 113.984 198.654 113.454L204.266 110.214L205.203 111.837L199.65 115.043C197.885 116.062 196.125 115.541 195.181 113.906ZM199.457 121.366C198.486 119.684 198.914 117.899 200.691 116.874L201.628 118.497C200.664 119.054 200.549 119.779 200.963 120.497C201.357 121.179 201.967 121.502 202.649 121.108C203.343 120.707 203.132 119.825 202.907 118.81C202.647 117.517 202.387 116.035 204.034 115.084C205.552 114.208 207.095 114.761 208.045 116.408C208.969 118.008 208.537 119.732 206.831 120.717L205.907 119.117C206.79 118.607 206.95 117.934 206.55 117.24C206.149 116.546 205.595 116.348 204.972 116.708C204.266 117.115 204.45 117.95 204.666 118.923C204.957 120.214 205.304 121.739 203.598 122.724C202.022 123.635 200.429 123.049 199.457 121.366ZM202.369 126.084L210.664 121.296L212.239 124.025C213.19 125.672 212.837 127.397 210.814 128.566L208.626 129.829C206.626 130.984 204.896 130.461 203.945 128.814L202.369 126.084ZM204.848 126.818L205.378 127.736C205.826 128.512 206.472 128.924 208.095 127.986L209.707 127.056C210.601 126.54 211.23 125.863 210.578 124.733L210.048 123.816L204.848 126.818ZM208.156 136.406C207.205 134.758 207.723 132.938 209.417 131.96L212.264 130.316C213.946 129.345 215.781 129.807 216.732 131.454C217.792 133.289 217.142 134.935 215.225 136.042L215.201 136.056L214.264 134.432L214.381 134.364C215.605 133.658 215.505 132.915 215.179 132.351C214.853 131.786 214.208 131.374 213.255 131.924L210.314 133.622C209.337 134.186 209.383 134.944 209.709 135.509C210.144 136.262 210.746 136.463 211.958 135.763L212.064 135.702L213.001 137.326L212.954 137.353C210.872 138.555 209.236 138.276 208.156 136.406Z" fill="white"/>
</g>
<mask id="path-26-outside-6_23009_17418" maskUnits="userSpaceOnUse" x="51.9588" y="169.801" width="49.8468" height="55.3372" fill="black">
<rect fill="white" x="51.9588" y="169.801" width="49.8468" height="55.3372"/>
<path d="M96.2387 211.525C92.5076 213.679 88.1305 213.473 84.3069 213.215C81.2345 213.017 78.5423 212.779 76.8952 213.73C75.8868 214.312 75.9336 215.092 76.3412 215.797C76.7681 216.537 77.42 216.967 78.6973 216.23L81.0455 220.297C77.7178 222.218 74.2327 221.228 72.4278 218.102C70.5842 214.908 71.4016 211.434 74.4604 209.668C77.1831 208.096 81.0934 208.348 84.7916 208.543C88.0708 208.712 91.1768 208.89 93.0928 207.784L89.3473 201.297L93.3473 198.987L99.4992 209.643L96.2387 211.525ZM89.112 191.031C90.9945 194.291 89.9418 197.902 86.5804 199.842L73.8074 207.217C70.4125 209.177 66.7593 208.283 64.8768 205.023C63.0138 201.796 64.0471 198.152 67.442 196.192L80.2151 188.817C83.5764 186.877 87.249 187.804 89.112 191.031ZM84.3279 195.63C85.7396 194.815 85.4614 193.945 85.112 193.34C84.7821 192.769 84.1677 192.093 82.7559 192.908L69.6804 200.457C68.2686 201.272 68.5081 202.075 68.8768 202.714C69.2455 203.352 69.8406 203.995 71.2523 203.18L84.3279 195.63ZM81.3797 177.638C83.2621 180.898 82.2094 184.509 78.8481 186.45L66.0751 193.824C62.6801 195.784 59.0269 194.891 57.1445 191.63C55.2815 188.403 56.3147 184.759 59.7097 182.799L72.4827 175.425C75.8441 173.484 79.5166 174.411 81.3797 177.638ZM76.5956 182.238C78.0073 181.423 77.729 180.552 77.3797 179.947C77.0498 179.376 76.4354 178.7 75.0236 179.515L61.948 187.064C60.5363 187.879 60.7758 188.682 61.1445 189.321C61.5132 189.959 62.1082 190.602 63.52 189.787L76.5956 182.238Z"/>
</mask>
<path d="M96.2387 211.525C92.5076 213.679 88.1305 213.473 84.3069 213.215C81.2345 213.017 78.5423 212.779 76.8952 213.73C75.8868 214.312 75.9336 215.092 76.3412 215.797C76.7681 216.537 77.42 216.967 78.6973 216.23L81.0455 220.297C77.7178 222.218 74.2327 221.228 72.4278 218.102C70.5842 214.908 71.4016 211.434 74.4604 209.668C77.1831 208.096 81.0934 208.348 84.7916 208.543C88.0708 208.712 91.1768 208.89 93.0928 207.784L89.3473 201.297L93.3473 198.987L99.4992 209.643L96.2387 211.525ZM89.112 191.031C90.9945 194.291 89.9418 197.902 86.5804 199.842L73.8074 207.217C70.4125 209.177 66.7593 208.283 64.8768 205.023C63.0138 201.796 64.0471 198.152 67.442 196.192L80.2151 188.817C83.5764 186.877 87.249 187.804 89.112 191.031ZM84.3279 195.63C85.7396 194.815 85.4614 193.945 85.112 193.34C84.7821 192.769 84.1677 192.093 82.7559 192.908L69.6804 200.457C68.2686 201.272 68.5081 202.075 68.8768 202.714C69.2455 203.352 69.8406 203.995 71.2523 203.18L84.3279 195.63ZM81.3797 177.638C83.2621 180.898 82.2094 184.509 78.8481 186.45L66.0751 193.824C62.6801 195.784 59.0269 194.891 57.1445 191.63C55.2815 188.403 56.3147 184.759 59.7097 182.799L72.4827 175.425C75.8441 173.484 79.5166 174.411 81.3797 177.638ZM76.5956 182.238C78.0073 181.423 77.729 180.552 77.3797 179.947C77.0498 179.376 76.4354 178.7 75.0236 179.515L61.948 187.064C60.5363 187.879 60.7758 188.682 61.1445 189.321C61.5132 189.959 62.1082 190.602 63.52 189.787L76.5956 182.238Z" fill="url(#paint6_linear_23009_17418)"/>
<path d="M84.3069 213.215L84.3721 212.247L84.3693 212.247L84.3069 213.215ZM78.6973 216.23L79.5376 215.745L79.0524 214.904L78.2121 215.39L78.6973 216.23ZM81.0455 220.297L81.5306 221.137L82.371 220.652L81.8858 219.812L81.0455 220.297ZM84.7916 208.543L84.7404 209.512L84.7418 209.512L84.7916 208.543ZM93.0928 207.784L93.5779 208.625L94.4183 208.139L93.9331 207.299L93.0928 207.784ZM89.3473 201.297L88.8621 200.457L88.0218 200.942L88.507 201.782L89.3473 201.297ZM93.3473 198.987L94.1876 198.502L93.7024 197.662L92.8621 198.147L93.3473 198.987ZM99.4992 209.643L99.9843 210.483L100.825 209.998L100.34 209.158L99.4992 209.643ZM96.2387 211.525L95.7535 210.685C92.3134 212.671 88.2304 212.507 84.3721 212.247L84.3069 213.215L84.2417 214.183C88.0306 214.438 92.7019 214.688 96.7239 212.366L96.2387 211.525ZM84.3069 213.215L84.3693 212.247C82.8576 212.149 81.3594 212.036 80.0401 212.072C78.73 212.107 77.4469 212.291 76.4101 212.889L76.8952 213.73L77.3804 214.57C77.9907 214.218 78.8772 214.045 80.0931 214.012C81.2997 213.979 82.6839 214.083 84.2444 214.184L84.3069 213.215ZM76.8952 213.73L76.4101 212.889C75.7321 213.281 75.2588 213.835 75.1319 214.547C75.0123 215.219 75.2391 215.829 75.5009 216.283L76.3412 215.797L77.1815 215.312C77.0358 215.06 77.0353 214.928 77.0425 214.887C77.0452 214.873 77.0519 214.845 77.0875 214.8C77.1269 214.751 77.2107 214.668 77.3804 214.57L76.8952 213.73ZM76.3412 215.797L75.5009 216.283C75.7688 216.747 76.2061 217.292 76.9328 217.5C77.6643 217.71 78.4284 217.506 79.1824 217.07L78.6973 216.23L78.2121 215.39C77.6888 215.692 77.4884 215.641 77.4679 215.635C77.4427 215.628 77.3406 215.588 77.1815 215.312L76.3412 215.797ZM78.6973 216.23L77.8569 216.715L80.2051 220.782L81.0455 220.297L81.8858 219.812L79.5376 215.745L78.6973 216.23ZM81.0455 220.297L80.5603 219.457C79.091 220.305 77.6493 220.479 76.4126 220.154C75.1752 219.828 74.0548 218.979 73.2682 217.617L72.4278 218.102L71.5875 218.587C72.6057 220.35 74.1303 221.56 75.9185 222.03C77.7075 222.501 79.6723 222.21 81.5306 221.137L81.0455 220.297ZM72.4278 218.102L73.2682 217.617C72.4547 216.207 72.2579 214.793 72.5494 213.575C72.8396 212.363 73.6313 211.267 74.9456 210.508L74.4604 209.668L73.9752 208.827C72.2307 209.835 71.0843 211.359 70.662 213.124C70.241 214.883 70.5574 216.803 71.5875 218.587L72.4278 218.102ZM74.4604 209.668L74.9456 210.508C76.1199 209.83 77.606 209.516 79.3195 209.411C81.0327 209.306 82.8735 209.414 84.7404 209.512L84.7916 208.543L84.8428 207.574C83.0114 207.478 81.048 207.361 79.2009 207.474C77.354 207.587 75.5236 207.933 73.9752 208.827L74.4604 209.668ZM84.7916 208.543L84.7418 209.512C86.3656 209.596 88.0168 209.686 89.5027 209.611C90.9786 209.536 92.4195 209.293 93.5779 208.625L93.0928 207.784L92.6076 206.944C91.8501 207.381 90.78 207.603 89.4041 207.673C88.0383 207.742 86.4968 207.659 84.8413 207.574L84.7916 208.543ZM93.0928 207.784L93.9331 207.299L90.1876 200.812L89.3473 201.297L88.507 201.782L92.2524 208.269L93.0928 207.784ZM89.3473 201.297L89.8325 202.137L93.8324 199.828L93.3473 198.987L92.8621 198.147L88.8621 200.457L89.3473 201.297ZM93.3473 198.987L92.5069 199.473L98.6588 210.128L99.4992 209.643L100.34 209.158L94.1876 198.502L93.3473 198.987ZM99.4992 209.643L99.014 208.803L95.7535 210.685L96.2387 211.525L96.7239 212.366L99.9843 210.483L99.4992 209.643ZM89.112 191.031L88.2717 191.516C89.0918 192.936 89.2495 194.383 88.8803 195.663C88.5101 196.946 87.5856 198.142 86.0953 199.002L86.5804 199.842L87.0656 200.683C88.9366 199.603 90.2192 198.023 90.7449 196.201C91.2719 194.374 91.0147 192.386 89.9523 190.546L89.112 191.031ZM86.5804 199.842L86.0953 199.002L73.3222 206.377L73.8074 207.217L74.2926 208.057L87.0656 200.683L86.5804 199.842ZM73.8074 207.217L73.3222 206.377C71.813 207.248 70.3059 207.454 69.0062 207.135C67.7107 206.817 66.5372 205.958 65.7172 204.538L64.8768 205.023L64.0365 205.508C65.099 207.348 66.6933 208.566 68.5437 209.02C70.3898 209.473 72.4069 209.146 74.2926 208.057L73.8074 207.217ZM64.8768 205.023L65.7172 204.538C64.9079 203.136 64.7485 201.689 65.12 200.401C65.4925 199.11 66.4214 197.902 67.9272 197.032L67.442 196.192L66.9569 195.352C65.0677 196.442 63.7825 198.036 63.2554 199.863C62.7273 201.694 62.9827 203.683 64.0365 205.508L64.8768 205.023ZM67.442 196.192L67.9272 197.032L80.7002 189.658L80.2151 188.817L79.7299 187.977L66.9569 195.352L67.442 196.192ZM80.2151 188.817L80.7002 189.658C82.1871 188.799 83.6889 188.602 84.9902 188.928C86.2886 189.252 87.4623 190.114 88.2717 191.516L89.112 191.031L89.9523 190.546C88.8987 188.721 87.3046 187.506 85.4606 187.045C83.6195 186.585 81.6044 186.895 79.7299 187.977L80.2151 188.817ZM84.3279 195.63L84.8131 196.471C85.6659 195.978 86.2127 195.346 86.3385 194.56C86.4564 193.823 86.1553 193.207 85.9524 192.855L85.112 193.34L84.2717 193.825C84.4181 194.079 84.4308 194.2 84.4222 194.253C84.4216 194.257 84.4017 194.467 83.8427 194.79L84.3279 195.63ZM85.112 193.34L85.9524 192.855C85.755 192.513 85.3744 191.954 84.6789 191.695C83.9413 191.42 83.1239 191.575 82.2708 192.067L82.7559 192.908L83.2411 193.748C83.7997 193.426 83.9954 193.511 84.0004 193.513C84.0476 193.531 84.1391 193.596 84.2717 193.825L85.112 193.34ZM82.7559 192.908L82.2708 192.067L69.1952 199.617L69.6804 200.457L70.1655 201.297L83.2411 193.748L82.7559 192.908ZM69.6804 200.457L69.1952 199.617C68.3664 200.095 67.7999 200.699 67.6567 201.475C67.5201 202.216 67.8283 202.838 68.0365 203.199L68.8768 202.714L69.7172 202.228C69.5566 201.95 69.5607 201.851 69.5652 201.827C69.5661 201.822 69.573 201.778 69.6459 201.693C69.7249 201.6 69.8784 201.463 70.1655 201.297L69.6804 200.457ZM68.8768 202.714L68.0365 203.199C68.245 203.56 68.6304 204.138 69.3342 204.401C70.0813 204.68 70.8968 204.505 71.7375 204.02L71.2523 203.18L70.7671 202.339C70.4836 202.503 70.291 202.564 70.1741 202.584C70.0667 202.602 70.0233 202.587 70.0127 202.583C69.9738 202.568 69.8774 202.506 69.7172 202.228L68.8768 202.714ZM71.2523 203.18L71.7375 204.02L84.8131 196.471L84.3279 195.63L83.8427 194.79L70.7671 202.339L71.2523 203.18ZM81.3797 177.638L80.5394 178.123C81.3594 179.544 81.5172 180.99 81.148 182.27C80.7777 183.553 79.8532 184.749 78.363 185.609L78.8481 186.45L79.3333 187.29C81.2043 186.21 82.4868 184.63 83.0126 182.808C83.5395 180.982 83.2824 178.993 82.22 177.153L81.3797 177.638ZM78.8481 186.45L78.363 185.609L65.5899 192.984L66.0751 193.824L66.5602 194.665L79.3333 187.29L78.8481 186.45ZM66.0751 193.824L65.5899 192.984C64.0807 193.855 62.5736 194.061 61.2738 193.743C59.9783 193.425 58.8048 192.565 57.9848 191.145L57.1445 191.63L56.3042 192.115C57.3666 193.956 58.9609 195.173 60.8114 195.627C62.6575 196.08 64.6745 195.753 66.5602 194.665L66.0751 193.824ZM57.1445 191.63L57.9848 191.145C57.1756 189.743 57.0161 188.297 57.3877 187.008C57.7601 185.717 58.6891 184.509 60.1949 183.639L59.7097 182.799L59.2245 181.959C57.3354 183.049 56.0502 184.643 55.523 186.471C54.995 188.301 55.2504 190.29 56.3042 192.115L57.1445 191.63ZM59.7097 182.799L60.1949 183.639L72.9679 176.265L72.4827 175.425L71.9976 174.584L59.2245 181.959L59.7097 182.799ZM72.4827 175.425L72.9679 176.265C74.4548 175.406 75.9566 175.21 77.2579 175.535C78.5563 175.859 79.73 176.721 80.5394 178.123L81.3797 177.638L82.22 177.153C81.1663 175.328 79.5723 174.113 77.7283 173.652C75.8872 173.192 73.8721 173.502 71.9976 174.584L72.4827 175.425ZM76.5956 182.238L77.0807 183.078C77.9335 182.586 78.4804 181.953 78.6062 181.167C78.7241 180.43 78.423 179.814 78.22 179.462L77.3797 179.947L76.5394 180.433C76.6857 180.686 76.6984 180.807 76.6899 180.86C76.6892 180.864 76.6693 181.075 76.1104 181.397L76.5956 182.238ZM77.3797 179.947L78.22 179.462C78.0227 179.12 77.6421 178.562 76.9466 178.302C76.209 178.027 75.3916 178.182 74.5385 178.675L75.0236 179.515L75.5088 180.355C76.0674 180.033 76.2631 180.118 76.2681 180.12C76.3153 180.138 76.4068 180.203 76.5394 180.433L77.3797 179.947ZM75.0236 179.515L74.5385 178.675L61.4629 186.224L61.948 187.064L62.4332 187.904L75.5088 180.355L75.0236 179.515ZM61.948 187.064L61.4629 186.224C60.6341 186.702 60.0675 187.306 59.9243 188.083C59.7878 188.823 60.096 189.445 60.3042 189.806L61.1445 189.321L61.9848 188.836C61.8242 188.557 61.8284 188.459 61.8328 188.435C61.8338 188.429 61.8407 188.386 61.9136 188.3C61.9926 188.207 62.1461 188.07 62.4332 187.904L61.948 187.064ZM61.1445 189.321L60.3042 189.806C60.5127 190.167 60.8981 190.745 61.6019 191.008C62.349 191.287 63.1645 191.112 64.0051 190.627L63.52 189.787L63.0348 188.946C62.7513 189.11 62.5586 189.171 62.4417 189.191C62.3343 189.21 62.2909 189.194 62.2803 189.19C62.2415 189.175 62.145 189.113 61.9848 188.836L61.1445 189.321ZM63.52 189.787L64.0051 190.627L77.0807 183.078L76.5956 182.238L76.1104 181.397L63.0348 188.946L63.52 189.787Z" fill="#2F2F2F" fill-opacity="0.6" mask="url(#path-26-outside-6_23009_17418)"/>
<g filter="url(#filter6_d_23009_17418)">
<path d="M108.352 193.693C109.296 195.328 108.873 197.094 107.097 198.12L101.544 201.326L100.606 199.702L106.218 196.462C107.136 195.933 107.178 195.218 106.811 194.583C106.465 193.983 105.798 193.615 104.88 194.145L99.2682 197.385L98.3309 195.761L103.884 192.555C105.648 191.536 107.408 192.058 108.352 193.693ZM104.076 186.232C105.048 187.915 104.619 189.699 102.843 190.725L101.905 189.102C102.87 188.545 102.985 187.82 102.571 187.102C102.177 186.42 101.567 186.097 100.885 186.491C100.19 186.892 100.402 187.774 100.627 188.789C100.887 190.082 101.146 191.563 99.4994 192.514C97.9817 193.39 96.4392 192.838 95.4883 191.191C94.5645 189.591 94.9966 187.867 96.7025 186.882L97.6262 188.482C96.7439 188.991 96.5834 189.664 96.9842 190.359C97.3849 191.053 97.9385 191.251 98.562 190.891C99.2679 190.483 99.0839 189.648 98.8673 188.675C98.5767 187.384 98.2296 185.859 99.9355 184.874C101.512 183.964 103.105 184.55 104.076 186.232ZM101.164 181.514L92.8701 186.303L91.2943 183.574C90.3434 181.926 90.6963 180.201 92.7198 179.033L94.9081 177.77C96.908 176.615 98.6375 177.138 99.5884 178.785L101.164 181.514ZM98.6857 180.781L98.1559 179.863C97.7076 179.087 97.0621 178.675 95.4386 179.612L93.8268 180.543C92.9327 181.059 92.3039 181.736 92.9559 182.865L93.4857 183.783L98.6857 180.781ZM95.3778 171.193C96.3287 172.84 95.8111 174.661 94.117 175.639L91.27 177.282C89.5876 178.254 87.7523 177.792 86.8014 176.145C85.7418 174.309 86.3916 172.664 88.3092 171.557L88.3327 171.543L89.2701 173.166L89.1524 173.234C87.9289 173.941 88.0283 174.683 88.3543 175.248C88.6803 175.813 89.3258 176.224 90.2788 175.674L93.2199 173.976C94.1964 173.412 94.1509 172.654 93.8249 172.09C93.3901 171.337 92.7877 171.136 91.576 171.835L91.4701 171.896L90.5327 170.273L90.5798 170.246C92.6621 169.043 94.2978 169.323 95.3778 171.193Z" fill="white"/>
</g>
<defs>
<filter id="filter0_d_23009_17418" x="0.18296" y="0.906175" width="304.006" height="303.998" filterUnits="userSpaceOnUse" color-interpolation-filters="sRGB">
<feFlood flood-opacity="0" result="BackgroundImageFix"/>
<feColorMatrix in="SourceAlpha" type="matrix" values="0 0 0 0 0 0 0 0 0 0 0 0 0 0 0 0 0 0 127 0" result="hardAlpha"/>
<feOffset dy="1.57655"/>
<feGaussianBlur stdDeviation="7.09446"/>
<feComposite in2="hardAlpha" operator="out"/>
<feColorMatrix type="matrix" values="0 0 0 0 0 0 0 0 0 0 0 0 0 0 0 0 0 0 0.25 0"/>
<feBlend mode="normal" in2="BackgroundImageFix" result="effect1_dropShadow_23009_17418"/>
<feBlend mode="normal" in="SourceGraphic" in2="effect1_dropShadow_23009_17418" result="shape"/>
</filter>
<filter id="filter1_d_23009_17418" x="136.204" y="88.79" width="32.3982" height="10.4022" filterUnits="userSpaceOnUse" color-interpolation-filters="sRGB">
<feFlood flood-opacity="0" result="BackgroundImageFix"/>
<feColorMatrix in="SourceAlpha" type="matrix" values="0 0 0 0 0 0 0 0 0 0 0 0 0 0 0 0 0 0 127 0" result="hardAlpha"/>
<feOffset dy="0.485166"/>
<feComposite in2="hardAlpha" operator="out"/>
<feColorMatrix type="matrix" values="0 0 0 0 0 0 0 0 0 0 0 0 0 0 0 0 0 0 0.6 0"/>
<feBlend mode="normal" in2="BackgroundImageFix" result="effect1_dropShadow_23009_17418"/>
<feBlend mode="normal" in="SourceGraphic" in2="effect1_dropShadow_23009_17418" result="shape"/>
</filter>
<filter id="filter2_d_23009_17418" x="135.416" y="211.317" width="32.3982" height="10.4022" filterUnits="userSpaceOnUse" color-interpolation-filters="sRGB">
<feFlood flood-opacity="0" result="BackgroundImageFix"/>
<feColorMatrix in="SourceAlpha" type="matrix" values="0 0 0 0 0 0 0 0 0 0 0 0 0 0 0 0 0 0 127 0" result="hardAlpha"/>
<feOffset dy="0.485166"/>
<feComposite in2="hardAlpha" operator="out"/>
<feColorMatrix type="matrix" values="0 0 0 0 0 0 0 0 0 0 0 0 0 0 0 0 0 0 0.6 0"/>
<feBlend mode="normal" in2="BackgroundImageFix" result="effect1_dropShadow_23009_17418"/>
<feBlend mode="normal" in="SourceGraphic" in2="effect1_dropShadow_23009_17418" result="shape"/>
</filter>
<filter id="filter3_d_23009_17418" x="193.403" y="168.659" width="24.7873" height="33.5018" filterUnits="userSpaceOnUse" color-interpolation-filters="sRGB">
<feFlood flood-opacity="0" result="BackgroundImageFix"/>
<feColorMatrix in="SourceAlpha" type="matrix" values="0 0 0 0 0 0 0 0 0 0 0 0 0 0 0 0 0 0 127 0" result="hardAlpha"/>
<feOffset dy="0.485166"/>
<feComposite in2="hardAlpha" operator="out"/>
<feColorMatrix type="matrix" values="0 0 0 0 0 0 0 0 0 0 0 0 0 0 0 0 0 0 0.6 0"/>
<feBlend mode="normal" in2="BackgroundImageFix" result="effect1_dropShadow_23009_17418"/>
<feBlend mode="normal" in="SourceGraphic" in2="effect1_dropShadow_23009_17418" result="shape"/>
</filter>
<filter id="filter4_d_23009_17418" x="85.3429" y="105.923" width="24.7873" height="33.5018" filterUnits="userSpaceOnUse" color-interpolation-filters="sRGB">
<feFlood flood-opacity="0" result="BackgroundImageFix"/>
<feColorMatrix in="SourceAlpha" type="matrix" values="0 0 0 0 0 0 0 0 0 0 0 0 0 0 0 0 0 0 127 0" result="hardAlpha"/>
<feOffset dy="0.485166"/>
<feComposite in2="hardAlpha" operator="out"/>
<feColorMatrix type="matrix" values="0 0 0 0 0 0 0 0 0 0 0 0 0 0 0 0 0 0 0.6 0"/>
<feBlend mode="normal" in2="BackgroundImageFix" result="effect1_dropShadow_23009_17418"/>
<feBlend mode="normal" in="SourceGraphic" in2="effect1_dropShadow_23009_17418" result="shape"/>
</filter>
<filter id="filter5_d_23009_17418" x="193.555" y="106.185" width="24.7873" height="33.5008" filterUnits="userSpaceOnUse" color-interpolation-filters="sRGB">
<feFlood flood-opacity="0" result="BackgroundImageFix"/>
<feColorMatrix in="SourceAlpha" type="matrix" values="0 0 0 0 0 0 0 0 0 0 0 0 0 0 0 0 0 0 127 0" result="hardAlpha"/>
<feOffset dy="0.485166"/>
<feComposite in2="hardAlpha" operator="out"/>
<feColorMatrix type="matrix" values="0 0 0 0 0 0 0 0 0 0 0 0 0 0 0 0 0 0 0.6 0"/>
<feBlend mode="normal" in2="BackgroundImageFix" result="effect1_dropShadow_23009_17418"/>
<feBlend mode="normal" in="SourceGraphic" in2="effect1_dropShadow_23009_17418" result="shape"/>
</filter>
<filter id="filter6_d_23009_17418" x="85.1916" y="168.398" width="24.7873" height="33.5008" filterUnits="userSpaceOnUse" color-interpolation-filters="sRGB">
<feFlood flood-opacity="0" result="BackgroundImageFix"/>
<feColorMatrix in="SourceAlpha" type="matrix" values="0 0 0 0 0 0 0 0 0 0 0 0 0 0 0 0 0 0 127 0" result="hardAlpha"/>
<feOffset dy="0.485166"/>
<feComposite in2="hardAlpha" operator="out"/>
<feColorMatrix type="matrix" values="0 0 0 0 0 0 0 0 0 0 0 0 0 0 0 0 0 0 0.6 0"/>
<feBlend mode="normal" in2="BackgroundImageFix" result="effect1_dropShadow_23009_17418"/>
<feBlend mode="normal" in="SourceGraphic" in2="effect1_dropShadow_23009_17418" result="shape"/>
</filter>
<radialGradient id="paint0_radial_23009_17418" cx="0" cy="0" r="1" gradientUnits="userSpaceOnUse" gradientTransform="translate(152.281 151.16) scale(120.35)">
<stop stop-color="white"/>
<stop offset="0.63" stop-color="white"/>
<stop offset="0.73" stop-color="white"/>
<stop offset="0.83" stop-color="#FDFDFD"/>
<stop offset="0.87" stop-color="#F6F6F6"/>
<stop offset="0.89" stop-color="#EBEBEB"/>
<stop offset="0.91" stop-color="#DADADA"/>
<stop offset="0.93" stop-color="#C4C4C4"/>
<stop offset="0.95" stop-color="#A8A8A8"/>
<stop offset="0.96" stop-color="#888888"/>
<stop offset="0.97" stop-color="#626262"/>
<stop offset="0.99" stop-color="#373737"/>
<stop offset="1"/>
</radialGradient>
<linearGradient id="paint1_linear_23009_17418" x1="152.375" y1="56.0381" x2="152.375" y2="83.0381" gradientUnits="userSpaceOnUse">
<stop stop-color="white"/>
<stop offset="0.673077" stop-color="#999999"/>
<stop offset="1" stop-color="#C8C8C8"/>
</linearGradient>
<linearGradient id="paint2_linear_23009_17418" x1="152.144" y1="253.986" x2="152.144" y2="226.986" gradientUnits="userSpaceOnUse">
<stop stop-color="white"/>
<stop offset="0.673077" stop-color="#999999"/>
<stop offset="1" stop-color="#C8C8C8"/>
</linearGradient>
<linearGradient id="paint3_linear_23009_17418" x1="238.72" y1="203.566" x2="215.337" y2="190.066" gradientUnits="userSpaceOnUse">
<stop stop-color="white"/>
<stop offset="0.673077" stop-color="#999999"/>
<stop offset="1" stop-color="#C8C8C8"/>
</linearGradient>
<linearGradient id="paint4_linear_23009_17418" x1="64.814" y1="104.033" x2="88.1967" y2="117.533" gradientUnits="userSpaceOnUse">
<stop stop-color="white"/>
<stop offset="0.673077" stop-color="#999999"/>
<stop offset="1" stop-color="#C8C8C8"/>
</linearGradient>
<linearGradient id="paint5_linear_23009_17418" x1="238.343" y1="103.38" x2="214.96" y2="116.88" gradientUnits="userSpaceOnUse">
<stop stop-color="white"/>
<stop offset="0.673077" stop-color="#999999"/>
<stop offset="1" stop-color="#C8C8C8"/>
</linearGradient>
<linearGradient id="paint6_linear_23009_17418" x1="65.1909" y1="204.219" x2="88.5735" y2="190.719" gradientUnits="userSpaceOnUse">
<stop stop-color="white"/>
<stop offset="0.673077" stop-color="#999999"/>
<stop offset="1" stop-color="#C8C8C8"/>
</linearGradient>
</defs>
</svg>
