<svg width="685" height="550" viewBox="0 0 685 550" fill="none" xmlns="http://www.w3.org/2000/svg">
<g filter="url(#filter0_f_23009_16581)">
<path d="M114.295 98.9541L81.4344 63.4225L93.5558 53.5042L126.416 89.0359L114.295 98.9541Z" fill="#6C3BF5"/>
</g>
<g filter="url(#filter1_f_23009_16581)">
<path d="M61.2316 374.178L16.1084 391.677L22.6453 405.909L67.7684 388.41L61.2316 374.178Z" fill="#6C3BF5"/>
</g>
<g filter="url(#filter2_f_23009_16581)">
<path d="M566.435 447.824L596.771 486.736L603.875 470.907L573.539 431.995L566.435 447.824Z" fill="#6C3BF5"/>
</g>
<g filter="url(#filter3_f_23009_16581)">
<path d="M581.915 338.246L627.847 330.16L623.4 314.471L577.468 322.556L581.915 338.246Z" fill="#303030"/>
</g>
<g filter="url(#filter4_f_23009_16581)">
<path d="M600.813 229.441L614.634 227.008L613.296 222.286L599.475 224.719L600.813 229.441Z" fill="#6C3BF5"/>
</g>
<g filter="url(#filter5_f_23009_16581)">
<path d="M521.08 483.746L528.092 497.691L530.858 493.421L523.846 479.475L521.08 483.746Z" fill="#303030"/>
</g>
<g filter="url(#filter6_f_23009_16581)">
<path d="M533.068 268.949L563.25 263.636L560.328 253.326L530.146 258.639L533.068 268.949Z" fill="#6C3BF5"/>
</g>
<g filter="url(#filter7_f_23009_16581)">
<path d="M528.048 206.265L603.443 152.263L586.902 131.541L511.507 185.544L528.048 206.265Z" fill="#6C3BF5"/>
</g>
<g filter="url(#filter8_f_23009_16581)">
<path d="M69.246 316.218L47.9723 320.68L49.5882 312.696L70.8619 308.235L69.246 316.218Z" fill="#303030"/>
</g>
<g filter="url(#filter9_f_23009_16581)">
<path d="M125.985 191.773L106.025 185.357L109.947 178.47L129.906 184.886L125.985 191.773Z" fill="#6C3BF5"/>
</g>
<g filter="url(#filter10_f_23009_16581)">
<path d="M277.494 102.358L275.896 75.8963L282.098 76.821L283.695 103.283L277.494 102.358Z" fill="#6C3BF5"/>
</g>
<g filter="url(#filter11_f_23009_16581)">
<path d="M331.048 486.79L329.451 460.328L335.652 461.253L337.249 487.715L331.048 486.79Z" fill="#6C3BF5"/>
</g>
<defs>
<filter id="filter0_f_23009_16581" x="75.4339" y="47.5032" width="56.9834" height="57.4516" filterUnits="userSpaceOnUse" color-interpolation-filters="sRGB">
<feFlood flood-opacity="0" result="BackgroundImageFix"/>
<feBlend mode="normal" in="SourceGraphic" in2="BackgroundImageFix" result="shape"/>
<feGaussianBlur stdDeviation="3.00036" result="effect1_foregroundBlur_23009_16581"/>
</filter>
<filter id="filter1_f_23009_16581" x="10.1077" y="368.177" width="63.6616" height="43.7329" filterUnits="userSpaceOnUse" color-interpolation-filters="sRGB">
<feFlood flood-opacity="0" result="BackgroundImageFix"/>
<feBlend mode="normal" in="SourceGraphic" in2="BackgroundImageFix" result="shape"/>
<feGaussianBlur stdDeviation="3.00036" result="effect1_foregroundBlur_23009_16581"/>
</filter>
<filter id="filter2_f_23009_16581" x="560.434" y="425.993" width="49.4409" height="66.7436" filterUnits="userSpaceOnUse" color-interpolation-filters="sRGB">
<feFlood flood-opacity="0" result="BackgroundImageFix"/>
<feBlend mode="normal" in="SourceGraphic" in2="BackgroundImageFix" result="shape"/>
<feGaussianBlur stdDeviation="3.00036" result="effect1_foregroundBlur_23009_16581"/>
</filter>
<filter id="filter3_f_23009_16581" x="571.467" y="308.47" width="62.3803" height="35.7768" filterUnits="userSpaceOnUse" color-interpolation-filters="sRGB">
<feFlood flood-opacity="0" result="BackgroundImageFix"/>
<feBlend mode="normal" in="SourceGraphic" in2="BackgroundImageFix" result="shape"/>
<feGaussianBlur stdDeviation="3.00036" result="effect1_foregroundBlur_23009_16581"/>
</filter>
<filter id="filter4_f_23009_16581" x="597.669" y="220.48" width="18.771" height="10.7657" filterUnits="userSpaceOnUse" color-interpolation-filters="sRGB">
<feFlood flood-opacity="0" result="BackgroundImageFix"/>
<feBlend mode="normal" in="SourceGraphic" in2="BackgroundImageFix" result="shape"/>
<feGaussianBlur stdDeviation="0.902839" result="effect1_foregroundBlur_23009_16581"/>
</filter>
<filter id="filter5_f_23009_16581" x="515.08" y="473.475" width="21.7788" height="30.2172" filterUnits="userSpaceOnUse" color-interpolation-filters="sRGB">
<feFlood flood-opacity="0" result="BackgroundImageFix"/>
<feBlend mode="normal" in="SourceGraphic" in2="BackgroundImageFix" result="shape"/>
<feGaussianBlur stdDeviation="3.00036" result="effect1_foregroundBlur_23009_16581"/>
</filter>
<filter id="filter6_f_23009_16581" x="526.203" y="249.383" width="40.9907" height="23.5092" filterUnits="userSpaceOnUse" color-interpolation-filters="sRGB">
<feFlood flood-opacity="0" result="BackgroundImageFix"/>
<feBlend mode="normal" in="SourceGraphic" in2="BackgroundImageFix" result="shape"/>
<feGaussianBlur stdDeviation="1.97155" result="effect1_foregroundBlur_23009_16581"/>
</filter>
<filter id="filter7_f_23009_16581" x="489.194" y="109.228" width="136.562" height="119.35" filterUnits="userSpaceOnUse" color-interpolation-filters="sRGB">
<feFlood flood-opacity="0" result="BackgroundImageFix"/>
<feBlend mode="normal" in="SourceGraphic" in2="BackgroundImageFix" result="shape"/>
<feGaussianBlur stdDeviation="11.1563" result="effect1_foregroundBlur_23009_16581"/>
</filter>
<filter id="filter8_f_23009_16581" x="45.1902" y="305.452" width="28.4536" height="18.0093" filterUnits="userSpaceOnUse" color-interpolation-filters="sRGB">
<feFlood flood-opacity="0" result="BackgroundImageFix"/>
<feBlend mode="normal" in="SourceGraphic" in2="BackgroundImageFix" result="shape"/>
<feGaussianBlur stdDeviation="1.39099" result="effect1_foregroundBlur_23009_16581"/>
</filter>
<filter id="filter9_f_23009_16581" x="103.243" y="175.689" width="29.4453" height="18.8667" filterUnits="userSpaceOnUse" color-interpolation-filters="sRGB">
<feFlood flood-opacity="0" result="BackgroundImageFix"/>
<feBlend mode="normal" in="SourceGraphic" in2="BackgroundImageFix" result="shape"/>
<feGaussianBlur stdDeviation="1.39099" result="effect1_foregroundBlur_23009_16581"/>
</filter>
<filter id="filter10_f_23009_16581" x="273.114" y="73.1145" width="13.3628" height="32.9507" filterUnits="userSpaceOnUse" color-interpolation-filters="sRGB">
<feFlood flood-opacity="0" result="BackgroundImageFix"/>
<feBlend mode="normal" in="SourceGraphic" in2="BackgroundImageFix" result="shape"/>
<feGaussianBlur stdDeviation="1.39099" result="effect1_foregroundBlur_23009_16581"/>
</filter>
<filter id="filter11_f_23009_16581" x="326.669" y="457.546" width="13.3628" height="32.9507" filterUnits="userSpaceOnUse" color-interpolation-filters="sRGB">
<feFlood flood-opacity="0" result="BackgroundImageFix"/>
<feBlend mode="normal" in="SourceGraphic" in2="BackgroundImageFix" result="shape"/>
<feGaussianBlur stdDeviation="1.39099" result="effect1_foregroundBlur_23009_16581"/>
</filter>
</defs>
</svg>
