<svg width="252" height="158" viewBox="0 0 252 158" fill="none" xmlns="http://www.w3.org/2000/svg">
<path d="M35.9726 20.9494C37.3891 14.7343 42.9162 10.3252 49.2907 10.3252H203.513C209.887 10.3252 215.414 14.7343 216.831 20.9494L241.826 130.618C243.775 139.167 237.277 147.313 228.508 147.313H24.2951C15.526 147.313 9.02828 139.167 10.977 130.618L35.9726 20.9494Z" stroke="#4D4D4D" stroke-width="19.5139" stroke-linejoin="round"/>
<path d="M203.513 4.93359C212.801 4.93365 220.855 11.3584 222.919 20.4147L247.915 130.083C250.754 142.541 241.286 154.41 228.508 154.41H24.2949C11.517 154.41 2.04882 142.541 4.88835 130.083L29.8843 20.4147C31.9484 11.3584 40.0019 4.93365 49.2905 4.93359H203.513ZM49.2905 17.4228C45.83 17.4229 42.8296 19.8161 42.0606 23.19L17.0651 132.858C16.0073 137.499 19.5346 141.921 24.2949 141.921H228.508C233.269 141.921 236.796 137.499 235.738 132.858L210.742 23.19C209.973 19.8161 206.973 17.4229 203.513 17.4228H49.2905Z" fill="url(#paint0_linear_23009_13883)" stroke="#B7B7B7" stroke-opacity="0.4" stroke-width="0.426583" stroke-linejoin="round"/>
<defs>
<linearGradient id="paint0_linear_23009_13883" x1="126.402" y1="42.9859" x2="126.402" y2="158.377" gradientUnits="userSpaceOnUse">
<stop stop-color="#292E2E"/>
<stop offset="0.91049" stop-color="#808988"/>
<stop offset="1" stop-color="#484D4C"/>
</linearGradient>
</defs>
</svg>
